<svg width="186" height="193" viewBox="0 0 186 193" fill="none" xmlns="http://www.w3.org/2000/svg">
<g clip-path="url(#clip0_567_741)">
<path d="M161.836 24.9328C160.269 24.475 158.829 24.0886 157.421 23.6361C155.482 23.0143 153.591 22.2892 151.637 21.7044C147.855 20.5745 144.082 19.3996 140.23 18.4602C136.559 17.5658 132.799 16.9227 129.064 16.2136C127.072 15.8352 125.06 15.507 123.045 15.2318C120.451 14.8772 117.848 14.5729 115.242 14.2845C110.897 13.8029 106.549 13.3477 102.202 12.8926C101.34 12.8026 100.469 12.7497 99.7098 12.6862C99.465 11.0852 99.1694 9.32818 98.8961 7.30119C98.645 5.4224 98.2541 3.55154 98.3876 1.64363C98.4639 0.585158 97.9712 0.16706 96.6618 0.143244C92.9908 0.0744429 89.3199 -0.0102352 85.6522 0.00299575C81.7206 0.0162267 77.7891 0.106197 73.8575 0.206753C70.7396 0.286138 67.6249 0.439617 64.507 0.542819C62.689 0.603681 60.8678 0.614266 59.0499 0.685713C56.9744 0.767745 54.899 0.886824 52.8268 1.00061C52.1848 1.03501 52.0576 1.18055 52.0481 1.70714C52.0417 2.13847 52.0417 2.57509 51.9654 2.99848C51.4951 5.60234 51.422 8.22471 51.3997 10.8497C51.3902 11.8738 51.3107 12.8979 51.2567 14.0305C50.1983 14.1654 49.2035 14.2766 48.2182 14.4168C45.0209 14.8772 41.8044 15.2636 38.6357 15.8352C34.6406 16.5549 30.6741 17.3885 26.7171 18.2485C22.5662 19.1508 18.533 20.3549 14.5442 21.6674C11.2833 22.7391 8.00331 23.7711 4.75828 24.8693C3.3789 25.3376 2.05673 25.9277 0.71867 26.4781C0.353166 26.629 0.175182 26.8883 0.168825 27.2641C0.130686 29.1561 0.0544065 31.0455 0.00673214 32.9349C-0.00598102 33.4191 0.0130887 33.9034 0.0385151 34.3876C0.0575848 34.7263 0.384949 34.9513 0.944328 34.9645C1.65944 34.983 2.37456 34.9671 3.0865 34.9486C4.80595 34.901 6.52541 34.8375 8.24169 34.7898C11.8109 34.6866 15.3801 34.5808 18.9525 34.4908C20.5131 34.4511 22.0736 34.4696 23.631 34.43C26.4883 34.3559 29.3424 34.2447 32.1996 34.1786C33.4964 34.1468 34.7931 34.1865 36.0899 34.1812C37.679 34.1759 39.2714 34.1574 40.8605 34.1547C43.2347 34.1495 45.6057 34.1495 47.9799 34.1521C49.3751 34.1521 49.3751 34.1574 49.4705 35.2979C49.4991 35.6498 49.5372 35.9991 49.5976 36.3484C49.8551 37.8144 50.8626 38.6983 52.6392 38.8861C53.8279 39.0132 55.0357 39.0502 56.2339 39.0555C60.1972 39.074 64.1606 39.0925 68.1239 39.0528C71.7916 39.0158 75.4594 38.9311 79.124 38.8067C81.2947 38.7327 83.4623 38.513 85.6331 38.4045C88.519 38.2616 91.4081 38.1531 94.2971 38.0473C96.5029 37.9679 98.7118 37.9123 100.921 37.8568C101.575 37.8409 102.011 37.5921 102.325 37.1238C102.767 36.4702 102.961 35.7769 102.99 35.0306C103.009 34.5279 103.101 34.0304 103.158 33.5144C104.207 33.4588 105.176 33.3847 106.146 33.3609C108.94 33.2894 111.733 33.2048 114.527 33.1809C118.849 33.1439 123.172 33.1545 127.494 33.136C130.091 33.1254 132.688 33.0751 135.284 33.0777C138.434 33.0804 141.584 33.1413 144.737 33.1386C146.914 33.1386 149.088 33.0619 151.265 33.0433C152.53 33.0328 153.795 33.083 155.06 33.0804C156.843 33.0751 158.629 33.0566 160.412 33.0142C160.984 33.001 161.553 32.8846 162.227 32.8052C162.068 30.1114 162.284 27.4519 161.842 24.9328H161.836ZM97.3165 2.30783C97.4436 2.80796 97.4373 3.2975 97.5136 3.77647C97.8409 5.91723 98.1905 8.05536 98.5338 10.1935C98.6577 10.9662 98.6768 11.7362 98.5497 12.5962C97.4087 12.5248 96.328 12.456 95.1902 12.3845C95.5462 10.6195 95.8704 8.94712 96.2232 7.28002C96.5728 5.62086 96.951 3.96434 97.3165 2.30783V2.30783ZM58.9513 1.63834C61.0935 1.60394 63.2357 1.5272 65.3747 1.44517C68.8136 1.31286 72.2493 1.13821 75.685 1.02972C78.0529 0.955625 80.4302 1.01649 82.7981 0.92387C87.2191 0.749222 91.6337 0.783622 96.0484 1.03766C96.2613 1.05089 96.4711 1.1144 96.6427 1.14615C95.845 4.88787 95.0599 8.57401 94.2558 12.3475C93.5629 12.3078 92.8574 12.2602 92.1518 12.231C91.4367 12.2019 90.7215 12.1834 90.0064 12.1702C89.2913 12.1596 88.5762 12.1596 87.8611 12.1622C87.146 12.1649 86.4308 12.1755 85.7157 12.1861C85.0006 12.194 84.2855 12.2046 83.5704 12.2152C82.8553 12.2258 82.1402 12.2337 81.425 12.2496C80.7099 12.2654 79.9217 12.4613 79.3019 12.2707C78.59 12.0511 77.9766 12.493 77.2964 12.3078C77.4395 12.104 77.5412 11.9585 77.6492 11.805C76.861 11.7759 76.451 12.5909 75.6024 12.3316C75.6755 12.1755 75.7232 12.0749 75.8154 11.8791C75.0335 12.104 74.5186 12.6571 73.705 12.4586C73.7526 12.3131 73.794 12.1781 73.8607 11.9797C73.1392 12.1226 72.653 12.755 71.7853 12.4375C72.0968 12.1411 72.3669 11.8844 72.6371 11.6251C72.6148 11.5907 72.5894 11.5536 72.5671 11.5192C71.887 11.9109 71.2068 12.2998 70.5299 12.6915C70.4854 12.6518 70.4377 12.6095 70.3932 12.5698L70.6951 12.067C70.2978 12.1649 70.0245 12.3951 69.694 12.5195C69.3857 12.6386 69.0138 12.6491 68.6706 12.71C68.6547 12.6624 68.6388 12.6121 68.6229 12.5645C69.125 12.1993 69.6272 11.8341 70.1326 11.4689C70.0849 11.4187 70.034 11.3684 69.9864 11.3181C69.303 11.7097 68.5975 12.0802 67.9427 12.5036C67.5645 12.7497 67.2149 12.9005 66.6333 12.7153C67.0496 12.3713 67.4119 12.0723 67.7775 11.7733C67.253 11.9109 66.8303 12.1437 66.4426 12.4136C66.0135 12.7153 65.5813 12.9349 64.793 12.7523C65.4001 12.2628 65.8991 11.8606 66.433 11.4319C66.0071 11.3446 65.7942 11.5774 65.5654 11.7468C65.149 12.0485 64.7549 12.3713 64.3449 12.6809C64.0016 12.9402 63.6171 13.0514 63.0195 12.9402C63.633 12.3978 64.1574 11.9373 64.6786 11.4769C64.0366 11.7018 63.5313 12.0352 63.0037 12.3448C62.5206 12.628 62.2218 13.2234 61.2365 13.0143C62.0406 12.2787 62.7494 11.6277 63.4582 10.9768C63.1022 11.072 62.8161 11.2308 62.5651 11.4266C61.9961 11.8685 61.424 12.3104 60.8901 12.7815C60.4578 13.1652 59.9716 13.353 59.2247 13.2684C59.7141 12.6941 60.1591 12.1675 60.6072 11.6436C60.55 11.6092 60.4928 11.5774 60.4356 11.543C59.9811 11.9982 59.5203 12.4454 59.0785 12.9085C58.6812 13.3266 58.1981 13.5065 57.483 13.3636C58.3093 11.9876 59.7014 11.0694 60.906 10.0056C60.6708 10.0453 60.4547 10.1088 60.3085 10.2305C59.4567 10.9318 58.6144 11.6409 57.7881 12.3634C57.4321 12.6756 57.1588 13.054 56.7996 13.361C56.4278 13.6785 55.9224 13.5833 55.8271 13.1784C55.6745 12.5221 55.5823 11.8553 55.4902 11.3234C57.0507 9.82831 58.5096 8.43112 59.9716 7.03128C58.2267 7.96274 56.9077 9.26731 55.5728 10.7227C55.2168 9.92621 55.1469 9.33611 55.8048 8.79894C57.4671 7.44409 59.1166 6.0813 60.7661 4.71586C60.7852 4.69999 60.7407 4.62854 60.693 4.483C59.5965 5.02018 58.802 5.80345 57.9152 6.48617C56.9999 7.1927 56.1227 7.93363 55.2137 8.67192C54.9308 8.38349 55.0611 8.16914 55.2963 7.94686C56.4341 6.86986 57.5624 5.78757 58.6939 4.71057C59.123 4.30306 59.5552 3.89554 59.9875 3.49068C59.9366 3.45098 59.8826 3.41129 59.8285 3.3716C58.1218 4.57562 56.6947 6.02573 55.1437 7.39646C54.5812 6.67669 54.5494 6.64758 55.042 6.19773C56.5454 4.81642 58.0773 3.45628 59.5965 2.08555C59.6601 2.02998 59.6855 1.9453 59.73 1.87385C57.7468 2.98525 56.3006 4.54651 54.5303 5.85637C54.2379 5.39593 54.4477 5.13925 54.7179 4.87993C55.63 3.99875 56.5422 3.11756 57.4353 2.2205C57.8389 1.81564 58.3093 1.65687 58.9513 1.64628V1.63834ZM57.3145 1.8765C56.2212 2.69947 55.4965 3.75 54.2665 4.49623C54.1839 3.8929 54.524 3.45363 55.8366 2.33429C56.2085 2.01675 56.5454 1.61717 57.3145 1.8765ZM55.4171 2.00881C54.9689 2.38721 54.5208 2.76562 53.9932 3.21018C53.8788 2.48512 54.3841 2.05115 55.4171 2.00881V2.00881ZM53.0175 3.42981C53.3639 5.11015 53.8406 6.76666 54.0472 8.4761C54.2506 10.1855 54.6066 11.8791 54.9085 13.6573C54.0568 13.7526 53.2336 13.8426 52.331 13.9431C52.3596 10.9662 52.0862 5.10485 53.0206 3.43246L53.0175 3.42981ZM5.29541 25.5917C7.18014 24.9301 9.06169 24.2659 10.975 23.6679C14.8939 22.4427 18.8159 21.2202 22.7665 20.0717C27.5562 18.6825 32.4889 17.7007 37.4375 16.8063C41.814 16.0151 46.2032 15.2583 50.6751 14.9063C53.8406 14.6576 56.9935 14.2766 60.1591 14.0278C63.5853 13.7605 67.0178 13.5515 70.4536 13.3742C73.403 13.2207 76.3557 13.1255 79.3083 13.0434C81.9399 12.9693 84.5715 12.9032 87.2032 12.9164C91.1983 12.9376 95.1902 13.0567 99.1631 13.4589C101.966 13.7447 104.785 13.9273 107.592 14.213C110.881 14.5491 114.168 14.9011 117.438 15.3297C121.446 15.8537 125.454 16.3909 129.43 17.0603C132.767 17.6213 136.066 18.3596 139.368 19.0662C140.748 19.3599 142.102 19.7515 143.453 20.1352C144.956 20.5613 146.45 21.0191 147.94 21.4821C151.22 22.4983 154.494 23.5223 157.768 24.5438C157.758 24.602 157.745 24.6602 157.736 24.7184C157.335 24.7634 156.935 24.8375 156.531 24.8481C154.097 24.9037 151.659 24.9645 149.224 24.9883C144.873 25.0307 140.522 25.0624 136.171 25.0757C131.849 25.0889 127.529 25.0545 123.207 25.0704C117.975 25.0889 112.744 25.1312 107.512 25.1815C103.743 25.2186 99.9767 25.2979 96.2073 25.3376C92.3743 25.3773 88.5412 25.3879 84.7082 25.4197C81.0691 25.4514 77.4299 25.4964 73.7908 25.5361C69.9895 25.5784 66.1851 25.6155 62.3839 25.6631C59.5234 25.7002 56.6661 25.7531 53.8057 25.7981C49.2893 25.8695 44.773 25.9357 40.2598 26.0204C37.6917 26.068 35.1269 26.1685 32.562 26.1976C29.4155 26.232 26.2658 26.2109 23.1193 26.2241C21.1074 26.232 19.0924 26.24 17.0805 26.2797C14.9701 26.322 12.8597 26.4014 10.7494 26.4596C8.3275 26.5258 5.90882 26.5866 3.48696 26.6501C3.46154 26.5655 3.43929 26.4808 3.41386 26.3961C4.03998 26.1262 4.65022 25.8192 5.29859 25.5917H5.29541ZM1.16363 27.4361C1.5482 27.4572 1.87557 27.4731 2.20293 27.4916C2.21882 27.5419 2.23154 27.5922 2.24743 27.6425C1.91371 27.8065 1.57999 27.9706 1.16363 28.177V27.4387V27.4361ZM1.37658 28.6877C2.1044 28.2511 2.86719 27.8489 3.65223 27.4811C4.17347 27.2376 4.23386 27.2746 5.08246 27.4652C3.76665 28.1479 2.52076 28.7962 1.27805 29.4419C1.19224 29.4022 1.1096 29.3651 1.02379 29.3254C1.1382 29.1085 1.17952 28.8068 1.37658 28.6877ZM1.65627 29.8018C3.05471 29.0238 4.47541 28.2723 5.88022 27.5022C6.70339 27.0497 7.61238 27.0338 8.61037 27.0338C7.962 27.5843 1.85332 30.7359 1.09371 30.929C0.779057 30.3786 1.19541 30.0611 1.65627 29.8044V29.8018ZM102.367 35.3085C102.281 36.1262 101.614 36.9703 100.307 36.9994C97.45 37.0629 94.5991 37.227 91.745 37.3487C89.5392 37.444 87.3335 37.5339 85.1277 37.6345C82.6741 37.7483 80.2205 37.8726 77.7668 37.9864C77.627 37.9917 77.4808 37.9335 77.3346 37.9044C77.449 37.6689 77.5316 37.4942 77.6683 37.2111C76.7275 37.5286 76.1395 38.3728 75.0112 37.9044C75.2496 37.6715 75.4435 37.4863 75.6342 37.2984C74.5631 37.5101 73.8067 38.4548 72.5036 37.9917C72.8182 37.6583 73.117 37.3408 73.4189 37.0232C72.8436 37.2085 72.3415 37.4519 71.9315 37.7747C71.334 38.2431 70.6729 38.2166 69.8497 38.1082C70.1453 37.8065 70.3773 37.5683 70.7523 37.1873C69.5732 37.4043 69.0392 38.4919 67.7552 38.1161C68.0476 37.8065 68.2955 37.5472 68.5402 37.2878C68.4989 37.2455 68.4544 37.2005 68.4131 37.1582C68.0126 37.399 67.5931 37.6186 67.2213 37.8859C66.7604 38.2166 66.2709 38.2775 65.6194 38.1161C65.9626 37.7615 66.2614 37.4493 66.5633 37.137C66.5093 37.092 66.4553 37.0444 66.4013 36.9994C65.8927 37.3143 65.381 37.6239 64.8789 37.9467C64.3799 38.2669 63.8586 38.3066 63.1499 38.0949C63.6361 37.5869 64.0398 37.1661 64.4434 36.7427C64.3894 36.6977 64.3354 36.6554 64.2813 36.6104C64.0525 36.7745 63.8141 36.9306 63.5948 37.1053C63.312 37.3275 63.0259 37.5525 62.778 37.8012C62.3235 38.259 61.7832 38.3066 61.1158 38.1214C61.4177 37.5048 62.2885 37.2878 62.4157 36.621C61.815 36.9994 61.2651 37.4122 60.7502 37.8568C60.372 38.1822 59.9747 38.3119 59.3391 38.0949C59.7745 37.6927 60.1686 37.3275 60.6962 36.8406C60.3561 36.9306 60.1623 36.9438 60.0288 37.0285C59.7205 37.227 59.3995 37.4281 59.1675 37.6795C58.6335 38.2616 57.9851 38.3119 57.1206 38.0764C57.5179 37.6821 57.8644 37.3408 58.2076 37.002C58.1472 36.9544 58.0868 36.9068 58.0265 36.8592C57.6387 37.1264 57.2541 37.3937 56.8664 37.6636C56.4977 37.9203 56.1926 38.3093 55.4711 38.1214C55.8398 37.7403 56.1385 37.4307 56.5454 37.0073C55.3535 37.1846 54.9689 38.4204 53.7262 38.087C53.6341 37.3064 54.7592 37.2085 54.8513 36.539C54.5113 36.6554 54.2316 36.8168 53.9741 37.0047C53.6595 37.2376 53.3703 37.4942 53.0588 37.735C52.7378 37.9811 52.4009 38.0764 52.0036 37.735C52.4327 37.3196 52.8554 36.9041 53.383 36.3908C52.3024 36.4675 52.0767 37.3196 51.3266 37.5392C50.389 37.0497 50.0013 35.8827 50.2396 34.1918C50.5416 34.1759 50.8594 34.1442 51.1741 34.1468C53.9678 34.1839 56.7583 34.2659 59.552 34.2606C64.6214 34.25 69.6908 34.2183 74.7602 34.1389C78.4629 34.0807 82.1624 33.9272 85.8619 33.8319C87.842 33.7816 89.8221 33.771 91.8022 33.7261C95.0822 33.652 98.3622 33.5673 101.645 33.4906C101.922 33.4853 102.202 33.5197 102.513 33.5382C102.462 34.1786 102.424 34.7396 102.367 35.3005V35.3085ZM160.984 32.2971C160.984 32.3183 159.014 32.4109 158.956 32.4056C158.87 32.4691 158.734 32.4506 158.645 32.3844C158.054 32.3448 157.466 32.3236 156.868 32.3448C156.801 32.3448 156.754 32.3262 156.712 32.2945C155.451 32.2733 154.189 32.2495 152.927 32.2468C151.726 32.2442 150.524 32.2971 149.326 32.2971C146.825 32.2971 144.323 32.2839 141.822 32.2707C138.997 32.2548 136.171 32.2124 133.342 32.2204C129.185 32.2336 125.025 32.2865 120.868 32.3156C117.813 32.3368 114.756 32.3156 111.705 32.3712C108.456 32.4294 105.211 32.5697 101.963 32.6464C98.0666 32.739 94.1668 32.7867 90.2702 32.8793C85.1722 33.001 80.0743 33.1704 74.9763 33.2789C70.7205 33.3688 66.4616 33.4456 62.2059 33.4482C58.1123 33.4482 54.0186 33.345 49.925 33.2921C49.0255 33.2815 48.1261 33.2921 47.198 33.2921V32.8158C46.2541 33.3265 45.3101 33.3662 44.3248 33.2603C44.417 33.1121 44.4933 32.9904 44.6649 32.7126C42.9931 33.2789 41.4421 33.435 39.7481 33.2259C40.1295 32.9851 40.4124 32.8078 40.692 32.6305C40.6571 32.5829 40.6221 32.5353 40.5872 32.4876C39.9928 32.6861 39.3794 32.8528 38.8105 33.091C38.178 33.3556 37.5487 33.3662 36.7001 33.2709C37.2595 33.0037 37.6568 32.8131 38.0541 32.62L37.9555 32.4374C37.2118 32.6729 36.4649 32.8952 35.7276 33.1465C35.2222 33.3186 34.7264 33.3847 34.0844 33.255C34.6914 32.9745 35.1841 32.747 35.6767 32.5194C35.4574 32.403 35.3048 32.4083 35.1714 32.4532C34.4753 32.6755 33.7761 32.8978 33.0896 33.1386C32.4571 33.3609 31.8278 33.3794 31.0396 33.255C31.5227 33.0089 31.8755 32.829 32.2251 32.6491C30.5501 32.866 29.0468 33.8002 27.1271 33.3186C27.4608 33.1307 27.696 32.9931 27.9376 32.866C28.1728 32.7417 28.4175 32.6279 28.659 32.5088C27.1303 32.7814 25.8748 33.7631 23.9488 33.435C24.9404 32.9507 25.7382 32.5591 26.5391 32.1675C26.4978 32.1039 26.4533 32.0404 26.412 31.9796C25.4076 32.3977 24.3683 32.7681 23.4117 33.2524C22.5249 33.7022 21.6445 33.6123 20.6561 33.3953C21.4538 32.9719 22.2516 32.5485 23.0493 32.1278C22.722 32.1436 22.4232 32.2204 22.1435 32.3368C21.3585 32.6596 20.5894 33.0089 19.8011 33.3265C19.299 33.5302 18.7904 33.7605 18.034 33.5461C19.175 32.9904 20.1825 32.4956 21.1932 32.0034C21.1614 31.9478 21.1328 31.8923 21.1011 31.8367C20.8786 31.8923 20.637 31.9214 20.4368 32.0113C19.4102 32.4771 18.3773 32.9375 17.3761 33.4403C16.6928 33.7816 16.0094 33.8504 15.0464 33.6467C16.3718 32.874 17.5477 32.186 18.7269 31.498L18.6029 31.3286C18.1802 31.5086 17.7384 31.6647 17.338 31.8737C16.3781 32.3818 15.4151 32.8872 14.4966 33.4456C13.7465 33.9034 12.9773 33.8716 12.0874 33.5805L17.6621 30.6538C17.6272 30.6036 17.5954 30.5506 17.5604 30.5004C17.1854 30.6406 16.7849 30.7517 16.4353 30.929C14.8017 31.7599 13.1553 32.5803 11.563 33.4667C10.8415 33.8663 10.1264 33.9642 9.13479 33.8822C11.1594 32.7046 13.0377 31.617 14.9129 30.5268C14.6745 30.4368 14.5156 30.4607 14.3949 30.5268C12.5705 31.5138 10.708 32.4585 8.94727 33.5197C8.23851 33.9457 7.59649 33.9801 6.60169 33.9139C8.91231 32.5379 11.0354 31.273 13.1585 30.0082C12.4307 29.9632 11.9508 30.3363 11.4327 30.6274C9.67828 31.6038 7.92704 32.5856 6.19804 33.5938C5.45115 34.0277 4.68836 34.168 3.65541 33.8981C6.39192 32.0907 9.22696 30.5559 11.9571 28.8941C11.6361 28.947 11.3469 29.0476 11.0926 29.1905C8.90913 30.4104 6.72882 31.6382 4.54851 32.866C3.95735 33.1995 3.38208 33.5541 2.76867 33.8584C2.222 34.1309 1.64037 34.1918 0.909367 33.8002C4.03045 31.7494 7.25959 29.9791 10.3394 28.0262C9.90393 28.1267 9.4844 28.2564 9.11889 28.4548C8.41014 28.8333 7.7268 29.2514 7.03711 29.6536C5.27952 30.6776 3.52828 31.7044 1.76433 32.7232C1.5482 32.8475 1.29076 32.9243 0.992003 33.0486V31.7097C3.24859 30.4421 5.44479 29.2434 7.59967 27.9891C8.88688 27.2402 10.2249 26.7216 11.8332 26.846C12.027 26.8618 12.2241 26.8486 12.418 26.8486C15.2784 26.846 18.1357 26.8592 20.9962 26.8327C23.2686 26.8116 25.538 26.7084 27.8104 26.7057C29.5617 26.7057 31.3161 26.8565 33.0673 26.8407C37.8729 26.7957 42.6785 26.6951 47.4872 26.6184C52.0004 26.5469 56.5168 26.4755 61.0299 26.4173C64.1161 26.3749 67.2022 26.3511 70.2883 26.322C74.2485 26.285 78.2086 26.2532 82.1688 26.2109C86.4881 26.1659 90.8105 26.1183 95.1298 26.0548C97.3673 26.023 99.6049 25.9304 101.842 25.9092C104.439 25.8828 107.039 25.9145 109.636 25.9039C113.631 25.8854 117.626 25.8483 121.624 25.8245C122.889 25.8166 124.151 25.8351 125.416 25.8245C128.597 25.8007 131.779 25.7531 134.96 25.7451C138.107 25.7372 141.256 25.7875 144.403 25.7795C146.71 25.7743 149.018 25.7372 151.325 25.6737C153.855 25.6049 160.552 25.4197 160.561 25.4329C160.777 25.425 160.99 25.4673 161.2 25.5387C161.283 25.5679 161.33 25.6287 161.327 25.7028C161.321 25.8325 161.28 25.9542 161.245 26.0786C161.419 26.4385 161.407 31.0296 161.41 32.1463C161.41 32.35 161.152 32.3924 160.99 32.3051L160.984 32.2971Z" fill="#333333"/>
<path d="M154.433 167.006C154.265 167.152 154.058 167.279 153.928 167.446C151.655 170.349 149.523 173.323 147.578 176.387C147.282 176.856 147.114 177.38 146.853 177.954C147.079 177.914 147.177 177.917 147.187 177.896C147.794 176.371 148.77 174.995 149.771 173.643C151.21 171.701 152.727 169.801 154.198 167.874C154.376 167.639 154.494 167.372 154.637 167.118C154.567 167.081 154.5 167.044 154.43 167.009L154.433 167.006Z" fill="#333333"/>
<path d="M147.543 181.161C148.147 179.806 149.065 178.576 149.863 177.29C151.277 175.014 153.054 172.931 154.672 170.767C154.993 170.338 155.269 169.891 155.409 169.401C153.966 170.391 147.613 179.904 147.543 181.161V181.161Z" fill="#333333"/>
<path d="M150.038 180.261C150.162 180.158 150.33 180.073 150.403 179.949C151.751 177.618 153.461 175.472 155.221 173.352C155.504 173.011 155.882 172.677 155.793 172.071C155.539 172.312 155.345 172.455 155.215 172.63C153.553 174.866 151.763 177.038 150.438 179.438C150.289 179.708 150.184 179.997 150.057 180.277L150.038 180.264V180.261Z" fill="#333333"/>
<path d="M148.458 172.46C148.607 172.32 148.798 172.201 148.9 172.04C150.305 169.769 151.891 167.591 153.68 165.514C153.877 165.284 154.017 165.022 154.185 164.773L153.969 164.638C153.788 164.797 153.566 164.934 153.435 165.117C151.96 167.163 150.492 169.208 149.049 171.267C148.792 171.637 148.671 172.074 148.487 172.479L148.461 172.458L148.458 172.46Z" fill="#333333"/>
<path d="M152.898 162.489C151.557 164.204 150.324 165.977 149.087 167.745C148.687 168.316 148.537 169.007 148.277 169.645C148.337 169.671 148.401 169.698 148.461 169.724C148.537 169.666 148.674 169.613 148.687 169.544C148.954 168.166 149.91 167.065 150.759 165.922C151.471 164.964 152.199 164.016 152.904 163.056C153.009 162.913 153.035 162.733 153.098 162.569C153.032 162.542 152.965 162.516 152.898 162.487V162.489Z" fill="#333333"/>
<path d="M150.435 184.164C152.18 181.759 153.925 179.354 155.67 176.948C155.641 176.916 155.609 176.885 155.581 176.853C155.422 176.983 155.225 177.091 155.113 177.245C153.928 178.864 152.742 180.481 151.592 182.116C151.134 182.767 150.772 183.466 150.365 184.141C150.39 184.148 150.413 184.156 150.438 184.162L150.435 184.164Z" fill="#333333"/>
<path d="M152.425 160.706C150.68 162.611 149.59 164.665 148.321 166.631C148.264 166.718 148.328 166.858 148.34 167.022C149.771 164.987 151.156 163.016 152.533 161.045C152.555 161.013 152.504 160.947 152.425 160.703V160.706Z" fill="#333333"/>
<path d="M151.938 159.362C150.835 159.83 148.639 163.241 148.69 164.294C149.478 162.519 150.893 161.031 151.938 159.362Z" fill="#333333"/>
<path d="M151.442 157.679C151.299 157.774 151.118 157.848 151.013 157.967C150.06 159.086 149.071 160.19 148.483 161.492C148.372 161.738 148.232 161.963 148.68 162.058C148.738 162.024 148.836 161.992 148.836 161.96C148.846 161.015 149.577 160.346 150.136 159.616C150.489 159.155 150.918 158.734 151.303 158.287C151.426 158.142 151.512 157.97 151.614 157.811C151.557 157.769 151.5 157.724 151.446 157.681L151.442 157.679Z" fill="#333333"/>
<path d="M150.711 188.404C151.703 186.636 153.038 185.011 153.877 183.183C152.59 184.826 151.455 186.535 150.711 188.404Z" fill="#333333"/>
<path d="M161.298 140.55C162.109 139.362 162.922 138.174 163.749 136.962C163.31 137.062 162.738 137.671 162.21 138.592C161.848 139.227 161.505 139.87 161.155 140.507C161.203 140.521 161.251 140.534 161.298 140.55V140.55Z" fill="#333333"/>
<path d="M163.027 140.095C162.287 141.084 161.775 142.156 161.518 143.32C162.09 142.275 162.662 141.233 163.237 140.187C163.167 140.156 163.097 140.124 163.027 140.095Z" fill="#333333"/>
<path d="M153.413 187.091C152.761 188.057 152.405 189.107 152.313 190.237C152.749 189.221 153.184 188.202 153.623 187.186C153.553 187.155 153.483 187.123 153.413 187.091Z" fill="#333333"/>
<path d="M149.996 150.584C149.777 151.383 149.558 152.182 149.338 152.982C149.421 152.998 149.507 153.016 149.589 153.032C149.828 152.227 150.066 151.42 150.301 150.616C150.2 150.605 150.098 150.595 149.996 150.584V150.584Z" fill="#333333"/>
<path d="M148.916 151.595C149.183 150.788 149.446 149.994 149.736 149.113C149.09 149.542 148.773 150.595 148.916 151.595Z" fill="#333333"/>
<path d="M153.483 192.069C153.632 191.505 153.785 190.939 153.956 190.29C153.413 190.74 153.251 191.288 153.483 192.069Z" fill="#333333"/>
<path d="M150.057 180.277C149.64 180.907 149.221 181.534 148.804 182.164C148.871 182.19 148.935 182.219 149.001 182.246C149.319 181.574 149.955 181.029 150.041 180.261L150.06 180.274L150.057 180.277Z" fill="#333333"/>
<path d="M148.48 172.481C148 172.802 147.806 173.238 147.654 173.799C148.07 173.495 148.169 173.318 148.455 172.463L148.477 172.481H148.48Z" fill="#333333"/>
<path d="M185.66 25.5252C185.323 23.9639 184.732 22.4371 184.214 20.9049C183.982 20.2196 181.032 15.4511 179.554 13.9004C174.05 7.95445 166.447 6.13652 164.403 5.71048C162.744 5.36383 161.038 5.1442 159.337 4.99072C157.335 4.81078 155.31 4.62819 153.308 4.69434C149.936 4.80813 131.683 4.85841 130.3 4.79225C129 4.73139 124.316 4.58585 119.971 4.45354C119.939 4.42972 114.094 3.72848 112.696 5.58611C111.993 6.51757 112.086 7.8539 112.032 8.89914C111.943 10.6483 111.984 12.3974 112.089 14.1439C112.114 14.5329 112.915 14.5064 112.912 14.1174C112.887 11.8285 112.909 9.50777 113.131 7.2241C113.408 4.38738 119.002 5.0701 118.995 5.11773C122.911 5.23417 127.141 5.36912 128.991 5.45115C132.452 5.60728 146.894 5.49614 150.657 5.58082C152.043 5.61257 153.432 5.60463 154.815 5.55965C157.208 5.48026 159.579 5.67079 161.918 6.01215C164.677 6.41701 170.02 7.95181 172.826 9.66389C177.438 12.1857 181.058 17.2955 182.358 19.4389C184.109 22.3233 185.18 25.3532 185.196 28.6212C185.215 32.7122 184.335 36.6577 182.583 40.4735C182.23 41.2435 181.951 42.0374 181.608 42.8127C180.784 44.6757 179.729 46.4407 178.595 48.1872C177.425 49.9866 176.061 51.6669 174.501 53.2334C173.621 54.1199 172.619 54.927 171.66 55.7606C171.046 56.2924 170.423 56.819 169.784 57.3324C167.598 59.0842 165.408 60.8333 163.208 62.5745C161.966 63.5562 160.694 64.5142 159.449 65.4932C159.089 65.7764 158.775 66.0966 158.431 66.3956C156.639 67.9701 154.751 69.4652 153.333 71.3202C152.272 72.7068 150.95 73.9611 149.917 75.3635C147.94 78.0441 146.297 80.857 145.585 83.9901C145.334 85.0962 144.86 86.1732 144.682 87.2846C144.097 90.9258 143.897 94.5828 144.844 98.2055C145.216 99.6265 145.779 101.01 146.255 102.413C146.309 102.572 146.468 102.752 146.421 102.879C146.033 103.871 146.491 104.842 146.478 105.824C146.478 105.985 146.446 106.147 146.43 106.292C144.749 106.848 143.452 107.748 142.445 108.949C142.086 109.378 141.647 109.769 141.367 110.232C140.97 110.889 140.595 111.574 140.376 112.283C140.064 113.291 139.842 114.326 139.695 115.363C139.521 116.586 139.47 117.822 139.359 119.163C138.971 119.134 138.593 119.089 138.214 119.081C137.312 119.063 136.454 119.134 135.767 119.74C135.166 120.272 134.966 120.838 135.211 121.545C135.605 122.677 136.044 123.807 136.307 124.961C136.797 127.099 136.508 129.227 136.021 131.349C135.738 132.59 135.526 133.844 135.37 135.101C135.224 136.274 135.535 137.43 136.148 138.467C136.539 139.134 137.22 139.711 137.881 140.23C139.155 141.227 140.493 142.169 141.838 143.103C142.89 143.834 143.541 144.744 144.008 145.808C144.603 147.168 145.207 148.525 146.383 149.663C146.869 150.134 147.11 150.822 147.323 151.444C147.746 152.701 147.749 154.003 147.692 155.294C147.6 157.356 147.514 159.417 147.33 161.473C147.149 163.529 146.843 165.575 146.605 167.628C146.265 170.555 145.912 173.482 145.617 176.414C145.359 178.988 145.086 181.568 144.981 184.149C144.879 186.62 144.956 189.1 145.022 191.574C145.035 192.013 145.359 192.45 145.569 192.876C145.598 192.934 145.791 192.939 146.055 193.005C146.084 192.603 146.192 192.251 146.119 191.928C145.594 189.61 145.655 187.271 145.753 184.934C145.839 182.902 145.982 180.87 146.176 178.843C146.437 176.104 146.764 173.368 147.072 170.629C147.358 168.11 147.654 165.591 147.959 163.072C148.058 162.251 148.188 161.434 148.309 160.616C148.328 160.484 148.328 160.29 148.426 160.232C149.055 159.875 149.078 159.235 149.45 158.764C149.917 158.171 150.4 157.586 150.854 156.985C150.982 156.819 151.026 156.612 151.017 156.387C149.78 157.239 149.265 158.457 148.471 159.597C148.448 159.343 148.401 159.089 148.41 158.838C148.452 157.517 148.509 156.199 148.557 154.879C148.611 153.445 148.544 152.026 148.083 150.624C147.873 149.986 147.508 149.441 146.983 148.991C146.062 148.197 145.556 147.229 145.057 146.237C144.574 145.279 144.078 144.307 143.42 143.429C143.007 142.881 142.89 142.4 143.074 141.815C143.115 141.688 143.122 141.553 143.16 141.341C142.565 141.566 142.845 142.077 142.486 142.339C141.491 142.042 141.831 141.328 141.682 140.714C141.555 140.968 141.428 141.222 141.297 141.476C140.134 141.082 139.896 140.724 140.121 139.74C140.198 139.409 140.268 139.079 140.245 138.732C139.552 139.124 139.962 139.798 139.651 140.283C138.259 139.812 138.237 139.359 138.624 138.354C138.815 137.864 139.19 137.422 139.476 136.956C139.562 136.819 139.632 136.671 139.737 136.477C139.155 136.713 139.022 136.824 138.596 137.533C138.335 137.972 138.119 138.428 137.881 138.88C137.057 138.417 137.159 138.401 137.242 137.668C137.347 136.745 137.976 136.107 138.599 135.435C138.793 135.223 138.968 134.998 139.2 134.718C138.326 134.948 137.655 135.705 136.781 137.38C136.441 136.895 136.269 136.485 136.52 135.927C136.883 135.125 137.544 134.524 138.202 133.913C138.37 133.757 138.65 133.68 138.809 133.508C138.17 133.387 138.074 133.445 137.499 134.093C137.191 134.44 136.867 134.778 136.476 135.202C136.05 134.305 136.733 133.805 137.162 133.283C137.591 132.765 138.16 132.323 138.713 131.804C138.213 131.839 137.511 132.263 136.606 133.074C136.705 132.482 136.724 132.029 136.86 131.603C137.671 129.102 137.556 126.589 137.019 124.077C137.01 124.032 136.997 123.987 136.984 123.942C137.464 123.942 138.062 123.805 138.211 123.765C138.488 123.694 139.505 123.426 139.587 123.146C139.705 122.744 139.651 122.405 139.422 122.034C138.888 121.169 137.493 121.016 136.466 120.963C136.358 120.957 136.285 121.045 136.326 121.127C136.282 121.039 136.101 121.174 136.079 121.19C136.053 121.209 136.04 121.235 136.037 121.262C136.012 120.923 136.107 120.603 136.479 120.344C137.111 119.902 137.928 119.854 138.729 120.055C139.457 120.238 140.001 120.598 140.369 121.166C140.964 122.079 141.3 123.048 141.393 124.075C141.504 125.334 141.548 126.599 141.669 127.859C141.768 128.899 141.927 129.936 142.073 130.973C142.117 131.286 142.298 131.481 142.823 131.386C143.227 129.78 144.17 128.261 144.085 126.536C144.059 126.046 144.186 125.612 144.539 125.157C144.965 124.601 145.127 123.905 145.477 123.101C144.666 123.553 144.644 124.22 144.094 124.855C143.961 123.876 143.853 123.077 143.748 122.312C144.714 121.735 144.752 120.77 145.556 120.029C145.088 120.163 144.524 120.681 143.865 121.585C143.811 121.455 143.748 121.36 143.732 121.259C143.382 119.102 143.182 116.933 143.319 114.757C143.404 113.413 143.659 112.074 144.441 110.857C144.889 110.158 145.486 109.896 146.383 110.021C147.11 110.121 147.539 110.399 147.66 110.976C147.578 110.944 147.485 110.92 147.384 110.897C146.729 110.733 146.027 110.703 145.397 110.947C144.587 111.259 143.713 112.918 144.892 113.238C145.655 113.445 146.548 113.336 147.311 113.199C147.403 113.183 147.616 113.146 147.806 113.082C147.803 113.183 147.8 113.283 147.791 113.384C147.574 115.615 147.737 117.832 148.013 120.05C148.127 120.952 148.232 121.857 148.363 122.757C148.423 123.164 148.458 123.593 148.633 123.971C148.998 124.755 149.195 125.543 149.11 126.382C149.106 126.414 149.183 126.454 149.288 126.551C149.605 125.998 149.853 125.472 149.888 124.876C149.914 124.474 149.939 124.059 150.066 123.675C150.689 121.794 151.315 119.915 151.995 118.047C152.771 115.919 153.581 113.802 154.436 111.696C154.64 111.193 154.964 110.682 155.67 110.473C156.636 110.187 158.031 110.658 158.396 111.476C158.59 111.905 158.66 112.381 158.718 112.842C158.787 113.41 158.816 113.471 159.429 113.514C161.079 113.627 161.858 114.305 161.902 115.662C161.902 115.744 161.924 115.829 161.912 115.908C161.753 116.755 161.969 117.351 162.941 117.909C163.806 118.407 164.276 119.351 164.295 120.301C164.346 122.667 164.365 125.033 164.356 127.398C164.349 128.658 164.2 129.917 164.225 131.177C164.245 132.135 164.486 133.088 164.543 134.048C164.674 136.147 164.407 138.226 163.85 140.272C163.269 142.4 162.891 144.538 162.802 146.721C162.722 148.666 163.088 150.558 163.603 152.437C164.276 154.903 165.007 157.358 165.64 159.833C166.898 164.762 168.631 169.584 170.337 174.413C171.427 177.499 172.527 180.581 173.675 183.654C174.45 185.726 175.327 187.771 176.135 189.835C176.468 190.69 176.738 191.563 177.037 192.426C177.876 192.447 178.016 192.349 177.844 191.828C177.209 189.899 176.611 187.959 175.915 186.043C175.168 183.992 174.32 181.965 173.532 179.925C172.514 177.282 171.513 174.635 170.506 171.989C169.768 170.05 168.942 168.131 168.316 166.165C167.382 163.244 166.523 160.301 165.751 157.348C165.087 154.8 164.562 152.222 164.028 149.653C163.644 147.798 163.685 145.919 163.981 144.061C164.353 141.717 164.871 139.391 165.243 137.046C165.398 136.072 165.386 135.072 165.357 134.085C165.303 132.243 165.112 130.404 165.103 128.563C165.09 126.062 165.195 123.559 165.249 121.058C165.271 120.021 165.065 119.028 164.365 118.145C164.044 117.737 164.016 117.298 163.993 116.816C163.876 114.289 163.297 111.873 160.879 110.095C159.538 109.108 157.996 108.356 156.283 107.877C154.153 107.285 152.018 106.708 149.796 106.385C149.574 106.353 149.364 106.26 149.11 106.184C149.04 105.469 148.941 104.763 148.909 104.054C148.89 103.635 148.693 103.371 148.232 103.244C147.463 103.029 147.149 102.516 146.85 101.934C145.706 99.6953 145.35 97.3322 145.127 94.9401C144.917 92.6564 144.987 90.378 145.28 88.1023C145.353 87.5281 145.439 86.9486 145.61 86.3929C146.217 84.4215 146.751 82.4368 147.67 80.5395C148.935 77.9224 150.635 75.5144 152.574 73.2095C155.205 70.0844 158.352 67.3456 161.642 64.7126C164.642 62.3125 167.718 59.9759 170.703 57.56C172.336 56.2395 173.926 54.8661 175.384 53.4134C176.586 52.2173 177.651 50.9074 178.633 49.5738C181.242 46.0411 183.063 42.2041 184.557 38.2719C185.278 36.3666 185.669 34.3687 185.825 32.3576C186.003 30.074 186.127 27.7824 185.641 25.5252H185.66ZM138.71 123.238C138.373 123.384 138.008 123.479 137.642 123.561C137.487 123.59 137.331 123.617 137.175 123.638C136.997 123.31 137.108 123.148 137.512 123.159C137.957 123.074 138.443 123.125 138.914 123.135C138.85 123.172 138.78 123.209 138.707 123.241L138.71 123.238ZM136.171 121.434C136.253 121.439 136.32 121.381 136.307 121.312C136.323 121.383 136.558 121.23 136.574 121.217C136.574 121.217 136.574 121.211 136.578 121.209C137.226 121.272 137.858 121.357 138.44 121.624C138.786 121.783 139.028 122.026 139.196 122.318C139.314 122.521 139.311 122.688 139.238 122.828C138.529 122.863 137.309 122.659 136.698 123.096C136.552 122.744 136.387 122.392 136.253 122.037C136.18 121.847 136.11 121.651 136.072 121.455C136.104 121.447 136.136 121.439 136.171 121.431V121.434ZM143.08 127.679C143.026 128.012 142.88 128.338 142.775 128.666L142.515 128.639C142.461 128.43 142.372 128.221 142.356 128.01C142.283 127.052 142.213 126.091 142.174 125.133C142.12 123.781 141.955 122.453 141.389 121.169C141.281 120.926 141.275 120.627 141.313 120.365C141.558 118.676 141.828 116.988 142.098 115.303C142.117 115.186 142.2 115.075 142.254 114.961C142.4 115.138 142.419 115.295 142.432 115.448C142.639 118.049 142.81 120.653 143.061 123.252C143.204 124.734 143.319 126.207 143.08 127.684V127.679ZM147.025 112.91C146.793 112.95 146.561 112.971 146.325 112.992C146.03 113.019 145.741 113.006 145.448 112.984C145.324 112.984 145.216 112.955 145.114 112.916C145.817 112.524 146.659 112.426 147.485 112.656C147.838 112.754 147.002 112.916 147.025 112.913V112.91ZM146.449 112.204C145.852 112.217 145.286 112.405 144.816 112.699C144.79 112.672 144.765 112.646 144.743 112.614C144.765 112.482 144.8 112.352 144.847 112.225C145.191 111.196 146.1 110.976 147.26 111.212C147.73 111.307 147.498 111.481 147.635 111.73C147.673 111.796 147.73 111.855 147.787 111.913C147.803 112.085 147.816 112.257 147.822 112.429C147.431 112.228 146.878 112.199 146.452 112.209L146.449 112.204ZM148.477 118.216C148.471 116.684 148.477 115.202 148.448 113.72C148.426 112.677 148.382 111.635 148.293 110.598C148.239 109.97 147.781 109.542 147.088 109.293C146.882 109.219 146.675 109.145 146.465 109.071C148.191 108.436 149.761 109.071 151.35 109.251C151.751 110.489 150.543 116.917 149.621 118.496C149.281 118.412 148.922 118.324 148.48 118.216H148.477ZM149.462 123.051L149.214 123.056C148.928 121.786 148.706 120.508 148.712 119.105C149.405 119.29 149.98 119.446 150.616 119.616C150.216 120.804 149.841 121.926 149.462 123.048V123.051ZM150.832 118.745C150.695 118.719 150.556 118.692 150.419 118.666C150.918 115.612 152.18 112.664 152.307 109.423C153.07 109.682 153.661 109.88 154.265 110.087C152.885 112.974 152.164 115.948 150.832 118.748V118.745ZM147.934 104.392C148.029 104.927 148.083 105.469 148.15 105.991C147.339 106.245 147.234 106.226 147.149 105.686C147.063 105.152 147.056 104.612 147.009 103.982C147.851 104.13 147.883 104.125 147.93 104.392H147.934ZM149.446 107.192C152.021 107.684 154.595 108.158 157.023 109.044C158.984 109.761 160.777 110.672 161.912 112.262C162.319 112.834 162.779 113.397 162.732 114.255C161.734 113.426 161.009 112.468 159.528 112.455C159.407 112.008 159.353 111.59 159.172 111.217C158.994 110.846 158.772 110.434 158.419 110.193C157.754 109.738 156.944 109.499 156.06 109.415C155.349 109.346 154.643 109.211 153.953 109.052C153.162 108.87 152.402 108.597 151.611 108.414C150.816 108.232 149.996 108.129 149.195 107.967C147.168 107.562 145.432 107.999 144.18 109.372C143.08 110.579 142.257 111.952 141.879 113.442C141.545 114.755 141.409 116.099 141.192 117.433C141.053 118.295 140.922 119.158 140.786 120.058C139.966 119.804 139.924 119.346 140.007 118.825C140.255 117.247 140.48 115.67 140.741 114.096C141.081 112.045 142.12 110.264 143.859 108.788C144.387 108.34 144.984 107.925 145.629 107.605C146.812 107.023 148.08 106.927 149.45 107.189L149.446 107.192Z" fill="#333333"/>
<path d="M157.449 119.161C157.033 118.658 157.433 118.187 157.532 117.65C157.84 117.636 158.11 117.626 158.473 117.613C158.18 117.308 157.948 117.068 157.656 116.763C157.494 116.79 157.249 116.832 156.9 116.89C157.345 117.467 157.195 117.999 156.906 118.573C156.706 118.547 156.525 118.507 156.34 118.507C156.169 118.507 156 118.544 155.628 118.589C156.026 118.851 156.264 119.005 156.575 119.208C156.42 119.587 156.251 119.989 156.064 120.447C155.647 120.293 155.31 120.169 154.824 119.992C154.916 120.571 155.472 120.69 155.806 121.082C155.542 122.05 155.282 123.093 154.958 124.122C154.894 124.323 154.611 124.487 154.401 124.644C154.223 124.779 154.007 124.876 153.674 125.067C154.554 125.332 155.215 125.564 155.463 126.268C155.695 126.922 155.075 127.472 155.266 128.245C155.431 128.033 155.561 127.933 155.596 127.814C155.828 127.038 155.956 126.279 155.622 125.472C155.466 125.099 155.631 124.614 155.724 124.191C155.889 123.437 156.092 122.685 156.324 121.942C156.407 121.677 156.62 121.442 156.849 121.077C156.614 120.465 156.569 119.743 157.446 119.161H157.449Z" fill="#333333"/>
<path d="M161.225 124.022C160.605 123.307 160.675 122.9 161.359 122.307C160.971 122.032 160.984 121.688 161.088 121.286C161.254 120.661 161.33 120.018 161.34 119.364C160.624 120.73 160.396 122.22 159.738 123.762C159.998 124.18 159.782 124.763 159.518 125.332C159.318 125.76 159.429 126.012 160.116 126.123C160.221 125.779 160.357 125.453 160.415 125.117C160.497 124.646 160.561 124.183 161.225 124.019V124.022Z" fill="#333333"/>
<path d="M161.448 138.002C162.23 137.015 163.008 136.025 163.822 134.995C163.352 135.059 163.345 135.054 162.382 136.337C161.994 136.853 161.642 137.39 161.273 137.917C161.333 137.946 161.391 137.972 161.451 138.002H161.448Z" fill="#333333"/>
<path d="M159.493 128.769C160.033 128.327 160.075 127.999 159.779 127.049C159.455 127.536 159.369 128.004 159.493 128.769Z" fill="#333333"/>
<path d="M144.552 123.162C144.876 122.611 145.197 122.064 145.537 121.487C144.758 121.688 144.434 122.161 144.552 123.162Z" fill="#333333"/>
<path d="M162.601 134.273C161.661 134.71 161.479 135.522 161.231 136.303C161.683 135.623 162.131 134.94 162.582 134.26L162.601 134.273Z" fill="#333333"/>
<path d="M162.748 131.651C162.373 132.251 162.001 132.852 161.626 133.453C162.258 132.955 162.764 132.402 162.992 131.727C162.91 131.704 162.83 131.677 162.748 131.653V131.651Z" fill="#333333"/>
<path d="M162.582 134.26C162.916 133.924 163.25 133.585 163.583 133.249L163.418 133.151C162.992 133.44 162.601 133.746 162.601 134.273L162.582 134.26V134.26Z" fill="#333333"/>
<path d="M145.01 118.769C144.822 118.981 144.638 119.192 144.45 119.404C144.514 119.446 144.577 119.486 144.641 119.529L145.235 118.917L145.01 118.772V118.769Z" fill="#333333"/>
<path d="M149.993 184.99C149.917 185.101 149.84 185.21 149.764 185.321C149.796 185.337 149.831 185.355 149.863 185.371C149.945 185.26 150.028 185.146 150.111 185.035C150.072 185.019 150.034 185.006 149.993 184.99V184.99Z" fill="#333333"/>
<path d="M1.73218 48.4465C1.23954 49.5791 1.47474 50.6322 1.53512 51.6775C1.57326 52.3258 1.6114 52.9715 1.64636 53.6198C1.75125 55.4827 1.85613 57.3483 1.96419 59.2112C2.07861 61.1561 2.18667 63.1037 2.32016 65.0487C2.43458 66.7211 2.5776 68.3935 2.71109 70.0659C2.74287 70.4707 2.80326 70.873 2.8414 71.2752C2.89543 71.8388 3.07342 71.9976 3.73768 71.9976C4.35427 71.9976 4.97404 71.9844 5.59062 71.9447C8.96597 71.7197 12.3413 71.8388 15.7198 71.8891C18.7074 71.9341 21.695 71.8229 24.6826 71.7674C26.437 71.733 28.1915 71.6721 29.9459 71.6165C34.297 71.4816 38.6449 71.3546 42.9959 71.2064C46.3713 71.0899 49.7466 70.9603 53.122 70.8095C56.8851 70.6401 60.6418 70.4258 64.4049 70.259C66.741 70.1558 69.077 70.1029 71.4162 70.0315C75.4749 69.9097 79.5336 69.7695 83.5955 69.6795C86.7706 69.6081 89.9489 69.6134 93.124 69.5552C95.2312 69.5155 97.3384 69.4228 99.4456 69.3461C99.5982 69.3408 99.7475 69.2773 99.9541 69.227C100.072 68.3644 100.11 67.5202 100.018 66.6602C99.9065 65.6097 99.8365 64.5539 99.8206 63.498C99.7698 60.1929 99.4488 56.9037 99.0324 53.6198C98.7718 51.5505 98.4762 49.4811 98.2061 47.4118C98.1711 47.1472 98.1806 46.8773 98.1934 46.61C98.2156 46.0623 98.0853 45.9194 97.4179 45.9405C96.2832 45.9776 95.1485 46.0729 94.0139 46.102C90.9627 46.1813 87.9084 46.2369 84.8572 46.3084C80.7986 46.4063 76.7367 46.5042 72.678 46.6153C69.1692 46.7106 65.6635 46.8217 62.1579 46.9302C58.1659 47.0519 54.1708 47.1816 50.1789 47.3033C46.5429 47.4145 42.9038 47.5071 39.2678 47.6288C34.9485 47.7744 30.6324 47.9278 26.3163 48.1131C22.6803 48.2692 19.0475 48.3592 15.4052 48.3168C11.248 48.2692 7.09078 48.3512 2.93357 48.3803C2.549 48.383 2.16443 48.42 1.73853 48.4412L1.73218 48.4465ZM85.9887 68.0045C85.2736 67.8325 84.8064 68.1394 84.3392 68.4067C83.6972 68.7745 83.0265 68.9571 82.2002 68.7851C82.3527 68.6025 82.483 68.4438 82.6165 68.285C82.1748 68.2823 81.8029 68.3697 81.4946 68.539C81.0465 68.7878 80.5888 68.9068 80.0453 68.9254C76.3458 69.0444 72.6494 69.1873 68.9499 69.3223C65.4792 69.4493 62.0053 69.5525 58.5346 69.7033C55.7441 69.8251 52.9599 70.0024 50.1725 70.1479C47.935 70.2643 45.6975 70.3755 43.46 70.4655C41.677 70.5369 39.8908 70.5766 38.1046 70.6216C36.7442 70.656 35.3839 70.6745 34.0236 70.7142C31.5573 70.7856 29.0909 70.8783 26.6246 70.9444C24.5809 71 22.5341 71.0397 20.4905 71.0661C18.8028 71.0873 17.1151 71.0794 15.4243 71.0847C12.0775 71.0926 8.73396 71.1005 5.38721 71.1058C4.99628 71.1058 4.60853 71.0926 4.2176 71.082C3.87117 71.0741 3.68047 70.9232 3.63915 70.6375C3.49613 69.6716 3.28954 68.711 3.2228 67.7425C2.98443 64.3686 2.79055 60.9921 2.58396 57.6182C2.45683 55.5118 2.34877 53.4054 2.21846 51.2991C2.19621 50.9445 2.27249 50.6693 2.66024 50.4708C3.21326 50.1877 3.78535 49.9178 4.27799 49.5738C4.80876 49.2033 5.35543 49.2033 6.03559 49.4282C5.17427 49.8754 4.30977 50.32 3.38489 50.8016C3.38489 51.2964 3.36582 51.8627 3.38807 52.4264C3.48977 54.9667 3.55334 57.5097 3.72815 60.0474C3.9252 62.9079 4.23667 65.7632 4.47822 68.6211C4.56086 69.5763 4.86597 69.9733 5.81311 70.0156C7.59613 70.0923 9.38233 70.1558 11.1653 70.1479C13.4378 70.1373 15.7103 70.0315 17.9828 69.9997C20.0582 69.9706 22.1368 70.0262 24.2122 69.9706C28.5951 69.8542 32.9748 69.6954 37.3577 69.5419C39.9861 69.4493 42.6146 69.317 45.243 69.2429C47.4487 69.1794 49.6576 69.19 51.8634 69.1371C54.4283 69.0762 56.99 68.9915 59.5517 68.9042C60.1015 68.8857 60.6514 68.8248 61.1948 68.7534C62.2977 68.6131 62.5965 68.3538 62.7331 67.4356C62.7745 67.1445 62.7808 66.8455 62.7649 66.5517C62.6346 63.8235 62.463 61.0953 62.3676 58.3644C62.2818 55.8241 62.4344 53.2758 62.0943 50.7407C61.9831 49.9098 61.7574 49.7061 60.7562 49.7299C59.2942 49.7616 57.8354 49.8172 56.3734 49.849C53.7767 49.9045 51.1769 49.9442 48.5802 49.9998C46.2092 50.0501 43.8382 50.1268 41.4672 50.1718C38.3811 50.23 35.2949 50.2618 32.2088 50.32C28.3758 50.3888 24.5428 50.4735 20.7098 50.5449C20.4682 50.5502 20.2267 50.5132 19.9533 50.492C20.7797 49.3383 21.4312 49.0181 22.4197 49.2721C22.1908 49.5632 21.9715 49.841 21.641 50.2644C21.9843 50.1771 22.1845 50.1718 22.2925 50.0871C22.55 49.886 22.7534 49.6346 23.0045 49.4282C23.5035 49.0154 23.5321 49.0181 24.3235 49.1954C24.3139 49.5129 23.7005 49.6717 23.9802 50.148C24.7271 49.5949 25.188 48.6529 26.5165 49.071C26.4498 49.1689 26.3862 49.2509 26.3385 49.3409C26.2972 49.4203 26.2781 49.5076 26.2305 49.6479C26.793 49.6611 26.9138 49.2774 27.2062 49.108C27.5717 48.899 27.9594 48.8831 28.4616 48.9625C28.2169 49.288 28.023 49.5526 27.826 49.8146C28.7381 49.6346 29.0496 48.592 30.1842 48.9387C30.1747 49.4203 29.2244 49.5526 29.5994 50.2776C29.9967 49.8887 30.3146 49.5632 30.6515 49.2536C31.1695 48.7746 31.4969 48.7137 32.2565 48.936C31.945 49.243 31.6431 49.5447 31.2204 49.9628C31.5382 49.9442 31.7098 49.976 31.7893 49.9204C32.088 49.714 32.3932 49.4997 32.6252 49.2456C33.1846 48.6397 33.906 48.6502 34.8722 48.7693C34.5322 49.0366 34.2938 49.2059 34.0808 49.3965C33.8901 49.5658 33.566 49.6981 33.7312 50.0818C34.2016 49.7378 34.6148 49.4415 35.0248 49.1398C35.4253 48.8434 35.8003 48.5021 36.5091 48.6899C36.1118 49.0974 35.7622 49.4547 35.4094 49.8119C35.6795 49.8569 35.8543 49.8119 35.9815 49.7219C36.3025 49.4917 36.6139 49.2536 36.9 48.9969C37.364 48.5867 37.9011 48.4729 38.594 48.637C38.397 48.8884 38.2317 49.0974 37.9488 49.4547C38.7339 49.3568 38.9818 48.8805 39.4267 48.6714C39.9702 48.4174 40.501 48.42 41.0667 48.4888C41.0572 48.9466 40.3039 48.989 40.4692 49.5182C41.4767 49.0736 42.1696 48.0443 43.5553 48.4703C43.5267 48.5947 43.4981 48.719 43.4695 48.8461C43.5426 48.8619 43.603 48.8884 43.6666 48.8884C43.727 48.8884 43.8064 48.8831 43.8509 48.8514C44.6487 48.2718 45.6212 48.2665 46.6033 48.2454C49.8166 48.1686 53.0298 48.076 56.2431 47.9834C59.1639 47.8987 62.0816 47.8114 65.0024 47.7214C69.7095 47.5785 74.4165 47.4224 79.1236 47.2901C82.5657 47.1922 86.0078 47.1287 89.4499 47.0414C91.9162 46.9778 94.3794 46.8958 96.8426 46.8244C96.9951 46.8191 97.1477 46.8561 97.3765 46.8826C97.9454 51.098 98.2823 55.2948 98.7209 59.4838C98.1997 59.6875 97.8056 59.8436 97.2939 60.0447C97.2176 59.4467 97.1318 58.9466 97.0968 58.4438C96.8775 55.3398 96.6741 52.2385 96.4516 49.1345C96.3976 48.375 95.9876 48.0734 95.0882 48.0945C93.4958 48.1342 91.9067 48.1819 90.3144 48.2348C85.5755 48.3936 80.8367 48.5576 76.0979 48.7217C75.8499 48.7296 75.602 48.7561 75.3573 48.7746C75.5766 54.3131 77.1531 66.2077 77.865 67.6631C82.4322 67.6076 87.0089 67.552 91.5825 67.4964C91.039 67.8986 90.4447 68.1659 89.8948 68.4887C89.4403 68.756 88.989 68.8089 88.4201 68.6925C88.6807 68.3326 89.2592 68.3141 89.4499 67.7187C88.9636 67.9066 88.6426 67.9992 88.3629 68.1447C87.3172 68.6925 86.2144 68.9571 84.8699 68.6581C85.2863 68.4199 85.6327 68.2215 85.9824 68.0204L85.9887 68.0045ZM90.6544 66.5491C89.4594 66.8005 88.3311 66.7184 87.2123 66.7026C86.8151 66.6973 86.6848 66.4538 86.6244 66.1627C86.4972 65.5541 86.3351 64.9508 86.2207 64.3395C86.1349 63.8738 86.0269 63.3975 86.2048 62.9053H90.1332C90.432 64.1358 90.6099 65.3186 90.6544 66.5491V66.5491ZM78.3989 67.1021C78.186 65.7605 77.9921 64.5247 77.7824 63.2017C79.0124 63.1276 80.0898 63.0614 81.2721 62.99C81.4787 64.2998 81.6694 65.5144 81.876 66.8455C80.6619 66.9354 79.559 67.0175 78.3989 67.1048V67.1021ZM82.6197 66.6946C82.4862 65.4324 82.1398 64.2178 82.1557 62.892H85.4134C85.6709 64.1516 85.9919 65.3768 85.9251 66.6946H82.6197V66.6946ZM8.51783 61.6827C7.21473 61.6642 5.9307 61.9659 4.56404 61.8018C4.32249 60.783 4.37652 59.8304 4.42419 58.8487C5.67326 58.7428 6.8238 58.637 7.97752 58.5549C8.32396 58.5311 8.51465 58.7164 8.51783 59.0074C8.52419 59.8383 8.51783 60.6719 8.51783 61.6854V61.6827ZM39.8749 61.0662C39.9702 62.0003 40.1355 62.9238 40.0211 63.9082C38.5749 64.0352 37.2146 64.1014 35.7844 64.0643C35.8384 63.0297 35.5778 62.1008 35.8194 61.0662H39.8749ZM94.0647 62.9C94.3858 63.6965 94.532 65.7711 94.3286 66.52H91.182C91.0104 65.316 90.95 64.1278 91.0327 62.9H94.0679H94.0647ZM4.43055 58.1739C4.33838 57.0493 4.16039 56.0913 4.41148 55.1519C5.67962 55.009 6.88737 54.8741 8.06969 54.7391C8.37481 55.5436 8.46062 57.2557 8.22861 57.8934C7.0145 57.9834 5.76861 58.0733 4.42737 58.1712L4.43055 58.1739ZM5.0376 65.4589C4.73884 64.4295 4.49729 63.5165 4.64349 62.4872C5.98791 62.4104 7.30055 62.1643 8.72124 62.2861V65.2286C7.469 65.308 6.28985 65.3795 5.0376 65.4589V65.4589ZM89.3895 55.6044C89.6374 56.61 89.631 57.5282 89.6596 58.5311H85.5723C85.477 57.6341 85.3848 56.7449 85.2831 55.787C86.7197 55.7235 88.0196 55.6653 89.3863 55.6044H89.3895ZM89.7518 59.2773C89.8408 60.275 90.1682 61.1853 89.9711 62.2146H86.1508C85.8139 61.3361 85.6868 59.9918 85.8711 59.2773H89.755H89.7518ZM39.4966 56.7582C38.2317 57.0228 36.6648 57.0889 35.6763 56.8984C35.6509 56.258 35.6032 55.5912 35.6001 54.9244C35.5969 54.2258 35.6732 54.1649 36.5504 54.1093C37.1956 54.067 37.8408 54.0432 38.4891 54.0273C38.8292 54.0194 39.1693 54.0458 39.4808 54.0564C39.7096 54.9349 39.7064 56.2078 39.4966 56.7608V56.7582ZM35.7367 57.6446C37.0907 57.5864 38.3684 57.5309 39.7064 57.4726C39.7986 58.4676 39.859 59.3409 39.789 60.2803C38.3906 60.3358 37.1066 60.3887 35.7367 60.4443V57.6473V57.6446ZM43.7079 60.7936C44.458 60.7566 45.065 60.7222 45.6752 60.6984C46.2759 60.6772 46.8798 60.4814 47.4614 60.6851C47.7666 61.6272 47.8683 62.7571 47.6998 63.4769C46.4762 63.5324 45.2366 63.5906 43.8795 63.6515C43.8191 62.6354 43.7651 61.7383 43.7047 60.791L43.7079 60.7936ZM85.032 51.8468C84.9272 50.8704 84.835 50.0263 84.7365 49.1186C86.1635 49.0683 87.4793 49.026 88.7602 49.0551C89.0716 49.9416 89.1797 51.1033 88.9985 51.659C87.7336 51.7198 86.4464 51.7807 85.032 51.8468ZM4.3638 54.2364V51.389H7.81225C8.13962 52.0453 8.24768 53.2149 8.06016 54.0935C6.87783 54.2681 5.6669 54.2946 4.36698 54.2364H4.3638ZM9.02 58.5364C10.2182 58.4464 11.2988 58.3644 12.4971 58.2744C12.5638 59.3647 12.5765 60.3649 12.5956 61.4393C11.4005 61.4922 10.3485 61.5372 9.17892 61.5901C9.12489 60.529 9.07403 59.5737 9.02 58.5391V58.5364ZM43.7047 60.0765C43.4949 59.0815 43.5649 58.1659 43.7047 57.1922C44.8743 57.1419 45.9549 57.0942 47.0896 57.044C47.2994 58.031 47.4773 58.9148 47.436 59.886C46.1711 59.9495 44.9919 60.0103 43.7047 60.0739V60.0765ZM89.3895 54.9826C87.9275 55.0276 86.618 55.0699 85.2164 55.1149C85.1274 54.2416 85.0511 53.4795 84.9653 52.6381C86.4654 52.601 87.8258 52.4369 89.2465 52.5269C89.2941 53.3605 89.3386 54.1067 89.3895 54.9852V54.9826ZM12.5066 57.6341C11.2639 57.687 10.1674 57.9278 8.94372 57.7531V54.7868C10.0625 54.673 11.1685 54.7021 12.3477 54.7285C12.4017 55.7262 12.4526 56.6312 12.5066 57.6314V57.6341ZM16.9181 58.2956C18.3864 58.0416 19.5274 58.031 20.2108 58.2771C20.1472 59.2085 20.0805 60.1612 20.0105 61.172C18.8568 61.2435 17.8175 61.3043 16.6384 61.3784C16.7369 60.2776 16.8259 59.3012 16.9181 58.2983V58.2956ZM16.3364 57.4779C15.2336 57.6817 14.2165 57.6182 13.1232 57.6155C12.9547 56.5782 12.888 55.615 13.0882 54.6465H16.3364V57.4779ZM90.8642 62.167C90.772 61.1297 90.4288 60.1956 90.6068 59.2085C91.681 59.1371 92.6695 59.0709 93.7406 58.9995C93.9599 60.0686 94.0679 61.09 94.0647 62.1696H90.8674L90.8642 62.167ZM80.8844 56.0199C82.1652 55.9431 83.2744 55.8743 84.4313 55.8055C84.6602 56.7767 84.8286 57.6632 84.7206 58.6502C84.0976 58.6502 83.551 58.6423 83.0075 58.6502C82.4354 58.6634 81.8665 58.6952 81.1863 58.7216C81.0878 57.8246 80.9956 57.0043 80.8875 56.0172L80.8844 56.0199ZM81.8919 62.2331C81.7203 61.2885 81.555 60.3649 81.3738 59.362H84.8223C85.2132 60.6534 85.2958 61.5822 85.0448 62.2331H81.8919ZM8.62907 51.307C9.70651 51.307 10.7331 51.307 11.7597 51.307C12.0616 51.307 12.2746 51.4473 12.2905 51.6881C12.335 52.4528 12.4875 53.2229 12.3095 54.0405H8.81977C8.60682 53.1594 8.54008 52.294 8.63225 51.307H8.62907ZM20.1377 64.6862C18.9267 64.7338 17.8143 64.7761 16.6574 64.8185V62.0744C17.808 61.9765 18.8536 61.8865 19.9915 61.7886C20.1885 62.7412 20.1663 63.6409 20.1377 64.6862V64.6862ZM31.9895 64.3131V61.3996C32.5743 61.3493 33.0829 61.2858 33.5914 61.2646C34.0872 61.2435 34.7832 61.1006 35.0343 61.3096C35.314 61.5398 35.2091 62.1088 35.2282 62.5322C35.2536 63.0588 35.2346 63.5854 35.2346 64.1755C34.1444 64.2231 33.1242 64.2654 31.9863 64.3157L31.9895 64.3131ZM51.3898 60.5078C52.499 60.4628 53.4811 60.4231 54.4791 60.3808C54.7334 61.344 55.3531 62.1538 55.1052 63.1646C53.9356 63.3075 52.7978 63.3869 51.5583 63.3049C51.5011 62.3628 51.447 61.4869 51.3866 60.5052L51.3898 60.5078ZM80.2964 49.325C81.3579 49.2774 82.2892 49.2139 83.2204 49.2059C83.4206 49.2059 83.7544 49.3674 83.7989 49.5076C84.0436 50.2512 84.2025 51.0133 84.1294 51.8098C82.8645 52.0585 81.6948 52.003 80.4903 51.9791C80.4235 51.0636 80.3631 50.2618 80.2964 49.3277V49.325ZM23.9039 61.0291C22.7184 61.0503 21.7077 61.2382 20.6208 61.0106C20.678 60.0342 20.7352 59.1027 20.7956 58.0839H23.9039V61.0291ZM16.3746 58.2691C16.2824 59.3303 16.1966 60.312 16.1044 61.352H13.174V58.2691H16.3714H16.3746ZM27.8005 64.4427C26.6532 64.4057 25.5567 64.6121 24.4888 64.4586V61.7357C25.6488 61.5769 26.6913 61.5346 27.8005 61.6086V64.4401V64.4427ZM12.5479 62.077V64.9243C11.4705 65.1678 10.482 65.1519 9.36961 65.1201V62.2146C10.4089 62.1696 11.4323 62.1247 12.5479 62.077ZM16.9022 57.433C16.9117 56.4565 16.7687 55.533 17.1533 54.6015C18.1862 54.5804 19.1683 54.5274 20.1536 54.6333V57.433H16.9022V57.433ZM80.5602 52.7942C81.8442 52.6354 82.9852 52.6222 84.1866 52.691C84.2597 53.5378 84.3296 54.3052 84.4027 55.1625C83.16 55.234 82.0444 55.2948 80.8049 55.3663C80.7159 54.448 80.6396 53.6304 80.557 52.7942H80.5602ZM93.5181 55.6203C93.4831 56.5465 93.8518 57.3747 93.6738 58.2374C92.59 58.4332 91.5857 58.5788 90.4288 58.4147C90.3716 57.605 90.2953 56.8085 90.273 56.0119C90.2699 55.8743 90.4923 55.6177 90.6195 55.615C91.5412 55.5859 92.4692 55.4192 93.5181 55.623V55.6203ZM24.3902 61.0318C24.6127 59.9442 24.2853 58.9757 24.6381 57.9992H27.6448V60.8677C26.6214 60.918 25.6043 60.9709 24.387 61.0318H24.3902ZM81.091 62.3231C79.9309 62.3866 78.8884 62.4448 77.8173 62.5031C77.4359 61.5531 77.4804 60.6772 77.5154 59.706C78.5197 59.6055 79.4637 59.5076 80.5316 59.4017C80.7255 60.4126 80.9003 61.3229 81.091 62.3258V62.3231ZM20.7701 57.3271C20.8178 56.4195 20.6208 55.5171 20.8655 54.6121C21.7936 54.5698 22.6008 54.5248 23.4113 54.4983C23.7577 54.4877 24.1105 54.5565 24.101 54.9138C24.0788 55.7129 24.1868 56.5227 23.8785 57.3271C22.9886 57.3694 22.1463 57.4144 21.3073 57.4409C21.1579 57.4462 21.0022 57.3774 20.7733 57.3271H20.7701ZM23.8277 64.5142C22.7725 64.665 21.7745 64.6994 20.7098 64.6015C20.7352 63.6145 20.4873 62.7121 20.7193 61.7515H23.8277V64.5142ZM20.4968 51.2091C21.7205 51.2435 22.8265 51.0583 24.0184 51.2303V53.7283C22.9377 53.9453 21.8953 53.9294 20.7606 53.8527C20.6716 52.9635 20.5922 52.1432 20.4968 51.2091ZM12.9643 51.3494C13.9909 51.3494 14.9253 51.3494 15.8597 51.3494C16.2125 51.3494 16.5176 51.4287 16.5208 51.7886C16.524 52.4793 16.5112 53.1673 16.5017 53.9426C15.2685 53.9638 14.1657 54.1358 12.9643 53.9453V51.3467V51.3494ZM39.5793 53.289C38.1745 53.2202 36.9763 53.4928 35.6255 53.3393C35.6827 52.5137 35.7367 51.7542 35.7939 50.9339H39.325C39.4077 51.6987 39.4839 52.4131 39.5761 53.289H39.5793ZM31.3411 54.4428C31.4746 55.398 31.5128 56.2951 31.249 57.208C30.2001 57.2954 29.2435 57.3694 28.2169 57.208C28.2169 56.4036 28.2169 55.6521 28.2169 54.9005C28.2169 54.6068 28.4044 54.448 28.7572 54.4454C29.5963 54.4401 30.4322 54.4454 31.338 54.4454L31.3411 54.4428ZM51.4248 59.7537V56.9487H54.3965C54.4791 57.8563 54.6698 58.7693 54.5904 59.7537H51.4248ZM35.1773 57.8008C35.1392 58.7164 35.2981 59.5711 35.0629 60.4655C34.0046 60.5264 33.0161 60.5846 31.9387 60.6454C31.7829 59.7695 31.8147 58.9704 31.9101 58.1712C31.9228 58.0548 32.1421 57.8669 32.2756 57.8616C33.2004 57.8272 34.119 57.5679 35.1742 57.7981L35.1773 57.8008ZM35.0566 54.3184C35.0947 55.1308 35.1487 55.9299 35.1456 56.7291C35.1456 56.8587 34.904 57.0969 34.761 57.1048C33.8425 57.1419 32.9176 57.2848 32.0594 57.163V54.3184H35.0534H35.0566ZM31.2426 60.6772C30.3877 60.7433 29.5613 60.8148 28.7318 60.8704C28.4076 60.8915 28.2518 60.7116 28.2455 60.4734C28.2169 59.7484 28.1883 59.0233 28.2232 58.3009C28.2296 58.1607 28.522 57.9199 28.6968 57.9093C29.52 57.8669 30.3463 57.8907 31.2426 57.8907V60.6772ZM43.9876 66.3665C43.9526 65.8981 43.8954 65.4456 43.8954 64.9958C43.8954 64.493 43.9971 64.403 44.6359 64.3501C45.5036 64.2787 46.3745 64.2337 47.2453 64.194C47.4551 64.1834 47.6712 64.2416 47.97 64.276C48.0494 64.9614 48.1257 65.6123 48.2115 66.3665H43.9876V66.3665ZM16.4508 67.6975C16.4508 67.335 16.4477 67.0175 16.4508 66.6973C16.4636 65.7923 16.9965 65.338 18.0495 65.3345C18.4373 65.3345 18.8282 65.3186 19.216 65.3213C19.5243 65.3213 19.8294 65.3424 20.1154 65.353V67.6975H16.4508ZM40.0624 66.6443C38.6862 66.7343 37.3545 66.8216 35.9242 66.9169V64.8767C37.31 64.7761 38.6385 64.5856 40.0624 64.6676V66.6443ZM47.0864 56.4168C45.9359 56.528 44.8584 56.5518 43.7301 56.5094C43.5045 55.6177 43.6443 54.8132 43.781 54.0194H46.8957C46.9625 54.8476 47.0197 55.5938 47.0832 56.4168H47.0864ZM27.6067 57.3033H24.6413C24.6413 56.4433 24.6222 55.6388 24.6604 54.837C24.6667 54.71 24.9337 54.4957 25.0894 54.4904C25.919 54.456 26.7485 54.4745 27.6035 54.4745V57.3033H27.6067ZM76.9465 55.7023C76.7113 54.7365 76.5937 53.85 76.7876 52.8656H79.6512C79.7497 53.7018 79.8451 54.5168 79.9531 55.4404C78.9075 55.5303 77.9667 55.6124 76.9465 55.7023V55.7023ZM50.6461 53.1541C49.5051 53.3049 48.5007 53.2599 47.4042 53.1276C47.3248 52.3179 47.2517 51.5584 47.169 50.7381H50.4872C50.538 51.5214 50.5857 52.2623 50.6429 53.1541H50.6461ZM48.167 59.9124C47.7856 58.7216 47.7125 57.6658 47.9509 57.0545H50.7001V59.8039C49.842 59.841 49.0156 59.8754 48.1638 59.9124H48.167ZM76.6255 52.0321C76.5269 51.1086 76.4348 50.238 76.3426 49.3488H79.4859V52.0321H76.6255V52.0321ZM28.4394 61.5769C29.4596 61.5081 30.3432 61.4499 31.2998 61.3837V64.2892H28.4394V61.5769ZM15.9995 64.7708C14.9952 64.8979 14.1148 65.0752 13.209 64.8608V62.0664C14.2102 62.0056 15.0937 62.0214 15.9995 62.1299V64.7682V64.7708ZM31.8465 51.1086C32.9176 50.9233 34.5608 50.9233 35.0566 51.0689V53.4478C34.0109 53.4901 33.0638 53.5272 31.9959 53.5669C31.9418 52.6857 31.8942 51.9156 31.8465 51.1086ZM27.8387 64.9825C27.8387 65.7579 27.8641 66.3718 27.8196 66.9831C27.8101 67.1127 27.559 67.335 27.4096 67.3377C26.4212 67.3694 25.4295 67.3535 24.3839 67.3535V65.1492C25.5503 65.0937 26.6277 65.0408 27.8387 64.9799V64.9825ZM31.4301 53.6304C30.2573 53.5589 29.2753 53.8262 28.2296 53.6277C28.166 52.7465 28.0898 51.9289 28.2518 51.0662H31.2331C31.2967 51.9077 31.357 52.6989 31.4301 53.6304ZM43.3678 63.6065C42.3349 63.8606 41.3528 63.887 40.6408 63.7044C40.555 62.818 40.3484 61.9288 40.5105 60.9868C41.3846 60.9365 42.1823 60.6613 43.1326 60.8836C43.2089 61.7806 43.2883 62.6804 43.3678 63.6039V63.6065ZM61.2266 50.5343C61.3442 51.3044 61.4428 52.0612 61.4459 52.8736C60.3208 52.9185 59.3006 52.9582 58.1786 53.0032C58.0928 52.1591 58.0134 51.397 57.9244 50.5343H61.2235H61.2266ZM58.2835 59.5843C57.3841 59.6425 56.6817 59.6902 55.9761 59.7325C55.493 59.7642 55.261 59.579 55.2483 59.1715C55.2292 58.6079 55.1656 58.0442 55.1593 57.4832C55.1593 57.2874 55.2769 57.0889 55.35 56.8534H57.9689C58.0738 57.7611 58.1723 58.629 58.2835 59.5817V59.5843ZM61.4046 53.3869V56.1125H58.6999C58.417 55.2551 58.3821 54.4666 58.5982 53.813C59.4913 53.678 60.4066 53.5378 61.4046 53.3869V53.3869ZM89.6819 49.0128C90.5941 48.989 91.3664 48.9625 92.1387 48.9519C92.447 48.9466 92.7394 49.0154 92.7966 49.3197C92.9333 50.0316 93.0286 50.7487 92.8824 51.5214C91.9067 51.5637 91.0168 51.6034 90.0633 51.6457C89.9298 50.7407 89.8154 49.9442 89.6787 49.0128H89.6819ZM61.4459 56.7582V59.3832C60.5973 59.5843 59.79 59.6796 58.8747 59.5287C58.7984 58.6105 58.7253 57.7187 58.6459 56.7582H61.4491H61.4459ZM80.3917 58.7508C79.2634 58.809 78.3131 58.8566 77.2929 58.9095C77.1975 58.0575 77.1181 57.3165 77.0323 56.5359C78.0684 56.3295 79.006 56.0675 80.0644 56.2131C80.1724 57.0545 80.2741 57.8511 80.3917 58.7508ZM51.7807 66.2448V64.0696C52.9122 64.0061 53.996 63.9426 55.1752 63.8764V66.1866C54.9845 66.2104 54.8287 66.2421 54.6698 66.2448C53.764 66.2501 52.8582 66.2448 51.7807 66.2448ZM55.3595 60.4073C56.224 60.3676 56.9582 60.3094 57.6924 60.3173C57.8831 60.3173 58.1882 60.5078 58.239 60.656C58.4901 61.4102 58.5823 62.1829 58.3725 63.0799C57.5144 63.1117 56.6658 63.1434 55.69 63.1805C55.5756 62.2199 55.4739 61.352 55.3627 60.4073H55.3595ZM5.24101 68.2082C5.19652 67.4647 5.16156 66.8402 5.12024 66.1733C6.39791 66.0463 7.55799 65.9299 8.82613 65.8055V68.0468C7.65651 68.0998 6.54411 68.15 5.24101 68.2109V68.2082ZM43.0277 54.0061V56.5729C42.0965 56.6285 41.2161 56.6814 40.2277 56.7397V54.0061H43.0277V54.0061ZM98.8576 65.9696C99.2549 67.2741 99.2231 67.3482 98.0694 67.9807C97.8247 68.1156 97.5799 68.2453 97.3416 68.3855C96.903 68.6449 96.4389 68.7401 95.8541 68.5999C96.4071 67.9172 97.4687 67.8193 97.9868 67.1551C97.6467 67.163 97.3416 67.2239 97.0778 67.3456C96.3118 67.6949 95.5522 68.0548 94.8085 68.4385C94.3349 68.6846 93.8709 68.8301 93.2765 68.6158C93.8359 68.0997 94.7926 68.0998 95.2789 67.3562C94.9674 67.4144 94.7767 67.417 94.6209 67.4832C93.8423 67.814 93.0668 68.15 92.3072 68.5073C91.8685 68.7137 91.4331 68.801 90.7911 68.6025C91.2837 68.2982 91.7478 68.0945 92.072 67.7901C92.4438 67.4435 92.8634 67.4038 93.3623 67.3773C94.2968 67.3297 95.2344 67.2609 96.1592 67.1445C96.5216 67.0995 96.8616 66.909 97.1954 66.7608C97.7484 66.512 98.2855 66.2448 98.8576 65.9696V65.9696ZM43.0087 60.0765C42.1092 60.1374 41.2892 60.1903 40.3675 60.2511V57.3668C41.2542 57.3747 42.087 57.1101 43.0087 57.2715V60.0739V60.0765ZM93.4418 54.7127C92.2436 54.7921 91.2583 54.8556 90.1745 54.927V52.4793C90.9596 52.4237 91.6937 52.3628 92.4311 52.3205C92.8316 52.2967 93.1399 52.4316 93.1971 52.7942C93.2892 53.4002 93.356 54.0061 93.445 54.7127H93.4418ZM24.7144 53.7389V51.1509C25.5217 51.1112 26.2273 51.0742 26.9329 51.0398C27.3143 51.0212 27.5494 51.1509 27.5685 51.4923C27.6003 52.0824 27.6321 52.6725 27.667 53.2626C27.6829 53.5563 27.5208 53.7283 27.1649 53.7336C26.3671 53.7415 25.5662 53.7336 24.7144 53.7336V53.7389ZM17.1405 51.3705C18.04 51.3361 18.8664 51.3044 19.7118 51.27C20.0042 52.1485 20.2457 52.945 20.0709 53.8553H17.1405V51.3679V51.3705ZM48.4118 63.2969C48.3291 62.3787 48.1003 61.5134 48.1893 60.6084C49.1205 60.619 49.9469 60.3411 50.7923 60.664C50.8654 61.5584 50.9385 62.429 51.0148 63.3604C50.0899 63.3684 49.3017 63.6118 48.4086 63.2969H48.4118ZM51.3263 56.258V53.977H54.1136C54.2217 54.3819 54.3456 54.7418 54.406 55.107C54.4664 55.4668 54.4632 55.832 54.4918 56.2554H51.3263V56.258ZM43.139 50.8995V53.162C42.1283 53.252 41.1811 53.2758 40.1355 53.1673C40.0878 52.392 40.0433 51.6801 39.9956 50.8995H43.139V50.8995ZM12.5606 67.9727H9.51899V65.7949C10.5106 65.5965 11.515 65.5938 12.5606 65.5806V67.9727ZM50.7446 56.3321H47.7062C47.6076 55.5383 47.4042 54.7894 47.6076 53.985C48.6152 53.9373 49.5655 53.895 50.5825 54.0802C50.6366 54.8159 50.6842 55.5065 50.7446 56.3348V56.3321ZM54.0437 50.6852V53.1355C53.1156 53.1646 52.1812 53.2678 51.1514 53.1011C51.2595 52.2782 50.983 51.4949 51.1673 50.6852H54.0437V50.6852ZM58.4774 63.6383C58.5378 64.4189 58.6045 65.054 58.6268 65.6917C58.6363 65.9802 58.4742 66.2236 58.0547 66.2236C57.3555 66.2236 56.6531 66.213 55.849 66.2077C55.8013 65.3715 55.7568 64.6359 55.7091 63.8023C56.669 63.7468 57.4921 63.6965 58.4806 63.6383H58.4774ZM23.7387 65.1519C23.869 66.0251 23.8944 66.7608 23.6084 67.5282H20.8464V65.2789C21.8476 65.2339 22.747 65.1942 23.7387 65.1519ZM46.8035 53.1488H43.8064C43.6793 52.3364 43.6793 51.6007 44.0416 50.8598C44.6455 50.8122 45.2208 50.7566 45.7992 50.7222C46.2505 50.6931 46.5556 50.8386 46.6001 51.2488C46.6669 51.8601 46.7304 52.474 46.8035 53.1488ZM59.0273 63.0535V60.3385H61.5476C61.5985 61.18 61.643 61.9765 61.6938 62.8497C60.788 62.9185 59.9966 62.9794 59.0273 63.0535V63.0535ZM28.4584 67.2371V65.0037H31.3888V67.0995C30.4576 67.29 29.5009 67.2159 28.4584 67.2371ZM35.225 66.8084C34.0967 67.073 32.8572 67.1312 32.0467 66.9645V64.9111H35.225V66.8084ZM57.6797 53.7415C57.7941 54.5116 57.9117 55.1652 57.9657 55.8241C57.9752 55.9458 57.7273 56.184 57.5843 56.1945C56.7961 56.2448 56.0015 56.3665 55.1561 56.2025C55.1402 55.4271 54.8828 54.7047 55.0162 53.9294C55.903 53.8659 56.6976 53.8103 57.6797 53.7415V53.7415ZM59.1862 63.6938C59.6883 63.6436 60.0697 63.5906 60.4543 63.5721C60.8579 63.5536 61.2648 63.5668 61.7256 63.5668C61.7955 64.4507 61.8559 65.2392 61.9259 66.1178H59.1862V63.6912V63.6938ZM54.8891 53.0694V50.6455C55.6805 50.5925 56.4369 50.5423 57.2887 50.4867C57.4095 51.389 57.5176 52.1961 57.632 53.0694H54.8891V53.0694ZM15.8438 65.5038V67.8219H13.1963V65.5038H15.8438V65.5038ZM96.6519 62.7359C96.7345 63.8129 96.8267 64.7735 96.8648 65.7367C96.8712 65.9034 96.6741 66.1627 96.493 66.2263C96.1306 66.3533 95.7143 66.3744 95.2598 66.4485C94.9165 65.1995 95.0119 64.0537 94.9674 62.8391C95.5331 62.8047 96.0035 62.7756 96.6519 62.7359ZM96.3372 58.6105C96.3976 59.8383 96.6582 60.9127 96.5788 62.0955C95.9749 62.1194 95.4791 62.1379 94.9038 62.1591C94.7926 61.0053 94.6527 59.9521 94.6782 58.8619C95.2439 58.7772 95.7079 58.7084 96.3372 58.6132V58.6105ZM43.3042 64.4083V66.4644C42.4461 66.6232 41.5753 66.6205 40.7139 66.5623V64.5486C41.5657 64.5009 42.3571 64.4586 43.3042 64.4057V64.4083ZM51.1769 66.2183C50.2774 66.3242 49.5623 66.5067 48.7741 66.2183C48.7073 65.5673 48.6374 64.9111 48.5707 64.2575C49.4288 63.9505 50.2011 64.1199 51.0497 64.2019C51.0942 64.882 51.1356 65.5144 51.18 66.221L51.1769 66.2183ZM48.1257 68.3273C46.9434 68.3776 45.7897 68.4226 44.6328 68.4755C44.3118 68.4914 44.1274 68.3458 44.0956 68.113C44.0543 67.8087 44.0861 67.4964 44.0861 67.126C45.4782 67.0783 46.7718 67.0333 48.1257 66.9884V68.33V68.3273ZM39.8081 68.7295H35.991C35.9497 68.6766 35.8702 68.6158 35.8511 68.5417C35.6477 67.7161 35.8098 67.5149 36.8015 67.4409C37.6405 67.3773 38.4828 67.3376 39.325 67.3032C39.5062 67.2953 39.6873 67.3482 39.9289 67.38C39.8908 67.8166 39.8558 68.2109 39.8113 68.7295H39.8081ZM95.495 48.9757C95.6602 49.8569 95.7492 50.709 95.6761 51.5743C95.1422 51.5743 94.7227 51.5875 94.3063 51.569C94.0298 51.5584 93.7946 51.4552 93.7914 51.1853C93.7851 50.4708 93.7914 49.7564 93.7914 48.9757H95.495ZM96.0702 55.2975C96.1402 56.2157 96.2069 57.1048 96.2832 58.068C95.6603 58.1157 95.1644 58.1527 94.5828 58.1977C94.4843 57.2213 94.2078 56.3427 94.354 55.4192C94.9483 55.3769 95.4537 55.3398 96.0702 55.2948V55.2975ZM55.2737 68.1368H51.9015C51.857 67.7584 51.8125 67.38 51.7553 66.8931H55.2737V68.1368V68.1368ZM94.0266 52.4528C94.6591 52.4078 95.193 52.3708 95.8096 52.3258C95.8923 53.1064 95.9686 53.813 96.048 54.5777C95.5744 54.6227 95.2248 54.6518 94.8784 54.6862C94.3889 54.7365 94.1537 54.5618 94.1379 54.149C94.1156 53.6145 94.0679 53.0826 94.0266 52.4502V52.4528ZM27.7115 69.1185H24.3203V68.1765C25.4836 68.0918 26.5896 68.0098 27.8005 67.9198C27.7687 68.3591 27.7433 68.674 27.7115 69.1185V69.1185ZM35.1646 67.5679C35.2187 68.0468 35.2568 68.3802 35.3045 68.7931C34.1635 68.8645 33.1369 68.9836 32.0404 68.8248C32.0849 68.4305 32.123 68.0971 32.1675 67.7108C33.1941 67.6631 34.1158 67.6181 35.1678 67.5679H35.1646ZM40.4025 68.5178C40.5359 68.0389 40.6377 67.6658 40.7457 67.2768C41.6738 67.2344 42.497 67.2 43.3551 67.1604C43.4028 67.6605 43.4409 68.0521 43.4854 68.5178H40.3993H40.4025ZM15.5927 49.2589C15.1478 49.7405 14.7441 50.1797 14.3405 50.6164C13.4219 50.6164 12.5415 50.6217 11.5658 50.4602C12.7291 49.46 13.886 48.8117 15.5927 49.2589ZM31.3253 67.7557V68.9968C30.3018 69.0233 29.377 69.0974 28.4044 69.0286C28.4044 68.7295 28.3504 68.5046 28.4203 68.3088C28.4743 68.158 28.6714 67.9516 28.8303 67.933C29.6249 67.8457 30.4322 67.814 31.3253 67.7557V67.7557ZM51.3008 68.2612H48.8567V66.9778H51.1483C51.1991 67.4091 51.2468 67.7954 51.3008 68.2612ZM19.9311 68.457C19.9819 68.7031 20.0328 68.9307 20.0964 69.2403H16.3428C16.4032 68.973 16.454 68.7428 16.5176 68.457H19.9279H19.9311ZM56.0174 66.8851C56.9486 66.7978 57.7305 66.7555 58.5855 66.9196C58.5855 67.2265 58.595 67.4647 58.5855 67.7028C58.5728 67.9595 58.4011 68.0971 58.0928 68.0998C57.4604 68.0998 56.8279 68.0945 56.135 68.0918C56.0905 67.642 56.0587 67.3085 56.0174 66.8851ZM59.2624 66.8931C59.8028 66.8666 60.2445 66.8402 60.6895 66.8269C61.3972 66.8058 61.8739 67.1198 62.1197 67.769C61.233 67.896 60.3621 68.0177 59.3641 68.1606C59.326 67.6843 59.2974 67.3271 59.2624 66.8957V66.8931ZM8.5369 50.4682C9.85907 49.2112 11.1113 48.7931 12.3795 49.3012C10.5011 50.619 10.4471 50.6375 8.5369 50.4682V50.4682ZM5.24737 50.4417C6.78248 49.1689 7.39272 48.9969 9.19481 49.3356C7.4531 50.5978 7.05582 50.709 5.24737 50.4417ZM19.2382 50.5608C18.5676 50.5687 17.9383 50.7275 17.2836 50.5502C18.0464 49.3012 18.8155 48.8937 20.268 49.333C19.9311 49.7325 19.6069 50.1215 19.235 50.5608H19.2382ZM23.4971 68.2082V69.1873C22.5881 69.235 21.7332 69.2482 20.8623 69.1794V68.367C21.7586 68.3141 22.6136 68.2612 23.4971 68.2082ZM17.7158 49.2536C17.3122 49.7167 16.9403 50.1427 16.5526 50.5846H14.8681C15.224 50.2274 15.4942 50.0051 15.6944 49.7458C16.1775 49.116 16.8418 49.0472 17.7158 49.2509V49.2536ZM15.8438 69.2905H13.1391C13.1709 69.0312 13.1963 68.8301 13.2281 68.5787C14.0481 68.5284 14.814 68.4808 15.6181 68.4305C15.6944 68.7269 15.7548 68.9518 15.8406 69.2905H15.8438ZM5.40946 69.0762C5.419 69.01 5.42853 68.9439 5.44125 68.8751C6.43923 68.719 7.4531 68.6846 8.47016 68.7269C8.60047 68.7322 8.72124 68.9121 8.84837 69.01C8.70217 69.1185 8.55279 69.3196 8.40659 69.3196C7.53892 69.317 6.67442 69.272 5.80675 69.2244C5.67008 69.2164 5.54295 69.1291 5.41264 69.0762H5.40946ZM12.2047 68.6343C12.2555 68.6819 12.3095 68.7322 12.3604 68.7798C12.1792 68.9677 12.0203 69.2958 11.8074 69.3223C11.0922 69.4096 10.3485 69.4969 9.63341 69.2773C9.73194 68.7004 9.72876 68.6634 10.1705 68.6422C10.8443 68.6105 11.5245 68.6343 12.2015 68.6343H12.2047ZM98.6383 60.0421C98.9021 60.9762 98.6955 61.2355 97.5195 61.5213C97.2017 60.5819 97.3606 60.3596 98.6383 60.0421ZM97.8978 65.8161C97.545 64.9032 97.777 64.5644 98.8767 64.3792C99.0992 65.4112 99.0324 65.5091 97.8978 65.8161ZM98.7337 61.6007C98.9307 62.3575 98.7432 62.5666 97.6562 62.8444C97.4846 62.0797 97.5164 62.04 98.7337 61.6007ZM1.95466 49.2615C2.55853 49.2033 3.07342 49.1239 3.68683 49.3779C3.14652 49.6902 2.71109 49.9416 2.14853 50.2644C2.06908 49.849 2.01505 49.5738 1.95466 49.2615V49.2615ZM97.8088 64.1649C97.6658 63.4319 97.7452 63.3393 98.7273 63.027C98.8926 63.4239 98.5864 63.8032 97.8088 64.1649ZM98.5557 68.5417C98.5302 68.4702 98.5016 68.3988 98.4762 68.3247C98.6447 68.2691 98.8163 68.2109 98.9847 68.1553C99.0165 68.2135 99.0483 68.2718 99.0801 68.33C98.9053 68.3988 98.7337 68.4702 98.5589 68.539L98.5557 68.5417Z" fill="#333333"/>
<path d="M68.7051 49.2351C66.884 49.2933 65.3616 49.3383 63.8392 49.3965C63.2766 49.4176 63.1622 49.5156 63.2067 50.0025C63.4292 52.4475 63.2957 54.9111 63.7788 57.343C64.0362 58.6317 63.9949 58.6105 65.5745 58.5179C67.2876 58.4173 69.0039 58.3829 70.717 58.3088C71.6864 58.2692 72.6557 58.2109 73.6283 58.1607C74.3657 58.121 74.5436 58.0072 74.6008 57.388C74.6485 56.8508 74.639 56.3083 74.5977 55.7711C74.4896 54.3978 74.3657 53.0244 74.2195 51.6537C74.1622 51.1165 74.0828 50.5767 73.9398 50.0527C73.7268 49.2774 73.6474 49.2377 72.6907 49.2324C71.2636 49.2245 69.8366 49.2324 68.7051 49.2324V49.2351ZM64.0839 50.1242C65.2026 50.0713 66.2451 50.0236 67.3829 49.9707V52.2173H64.2015C64.1665 51.5716 64.1316 50.9286 64.0871 50.1215L64.0839 50.1242ZM64.1506 52.8445C65.2281 52.8445 66.1243 52.8233 67.0174 52.863C67.2018 52.8709 67.4974 53.0826 67.5228 53.2308C67.6213 53.7495 67.7739 54.284 67.4815 54.8767C66.4962 54.9508 65.5109 55.0249 64.4112 55.107C64.3223 54.3396 64.246 53.6807 64.1474 52.8471L64.1506 52.8445ZM64.8085 57.7293C64.6433 57.0175 64.2619 56.4301 64.5638 55.7553C65.6126 55.6865 66.6074 55.406 67.723 55.6071V57.6129C66.76 57.6499 65.8351 57.687 64.8085 57.7267V57.7293ZM73.765 57.3509C72.9608 57.4727 72.1822 57.5573 71.3113 57.3589C71.3336 57.0413 71.3558 56.7555 71.3749 56.4671C71.4003 56.1046 71.2573 55.5806 71.4861 55.4219C71.7944 55.2075 72.3856 55.2551 72.856 55.226C73.1293 55.2075 73.4122 55.2604 73.7681 55.2869V57.3509H73.765ZM70.5422 52.0797H68.2506C68.1807 51.3943 68.1108 50.7143 68.0377 49.9919H70.5422V52.0797ZM70.7869 57.4383C69.8906 57.5811 69.1755 57.7558 68.3841 57.4806C68.3523 56.8032 68.1298 56.131 68.3523 55.4483H70.6788C70.7138 56.1337 70.7488 56.7608 70.7837 57.4409L70.7869 57.4383ZM68.2538 54.7603C68.1648 54.03 68.0536 53.4293 68.3015 52.7942C69.0674 52.7413 69.7953 52.691 70.6121 52.6328V54.628C69.8239 54.673 69.0929 54.7127 68.2538 54.7603V54.7603ZM73.6219 54.5116H71.3336C71.2922 53.858 71.1015 53.2361 71.4003 52.4952C72.1408 52.5587 72.8496 52.6195 73.6219 52.6857V54.5116V54.5116ZM71.2096 50.0104C71.7213 49.9786 72.2298 49.9336 72.7384 49.9204C73.0594 49.9125 73.3136 50.0289 73.3454 50.3279C73.3995 50.8254 73.4376 51.3255 73.4916 51.9104H71.2096V50.0104V50.0104Z" fill="#333333"/>
<path d="M72.2553 64.1331C72.2553 63.5668 72.2775 63.109 72.2489 62.6565C72.2203 62.2014 72.1091 61.7462 72.0995 61.2911C72.0868 60.783 71.7499 60.5475 71.216 60.4814C69.9287 60.3173 68.6479 60.4232 67.2431 60.4761V64.2707C66.0862 64.3369 65.0405 64.3977 63.9567 64.4586C63.8614 65.3477 63.766 66.1495 63.6898 66.9513C63.6739 67.1101 63.6961 67.2768 63.7343 67.4356C63.9281 68.2823 64.1443 68.4067 65.1645 68.3511C68.3046 68.1791 71.4448 68.0124 74.5849 67.8484C75.478 67.8007 75.6338 67.5943 75.4367 66.8719C75.2587 66.2183 75.1666 65.5462 75.0553 64.8793C74.9504 64.2575 74.8233 64.1463 74.0669 64.1384C73.5202 64.1305 72.9767 64.1384 72.2584 64.1384L72.2553 64.1331ZM71.2763 61.1244C71.3431 62.1617 71.4035 63.1196 71.4702 64.1596C70.2911 64.2787 69.22 64.3527 68.0822 64.2654V61.1244H71.2795H71.2763ZM71.4353 65.0805C71.4353 65.6732 71.4639 66.2289 71.4162 66.782C71.4035 66.9196 71.1715 67.1339 71.0125 67.1551C70.1639 67.2609 69.3058 67.3165 68.3968 67.3932C68.133 66.6099 68.1298 65.9008 68.1966 65.0805H71.4353ZM67.1859 65.1334C67.2971 65.9378 67.3925 66.6391 67.4974 67.4091C66.636 67.462 65.8701 67.5097 65.1041 67.5546C64.7163 67.5758 64.478 67.4382 64.4812 67.0968C64.4843 66.6391 64.4939 66.1839 64.5225 65.7261C64.5384 65.4694 64.656 65.2392 65.0215 65.2207C65.7175 65.1837 66.4167 65.1625 67.1859 65.1334V65.1334ZM74.9759 67.0413H72.3411V64.972C73.1134 64.9349 73.7999 64.9005 74.5595 64.8635C74.6994 65.5938 74.8328 66.2977 74.9759 67.0413Z" fill="#333333"/>
<path d="M70.555 8.69539C73.6761 8.57102 76.1075 8.45723 78.4848 7.98092C79.2381 7.83009 79.9723 7.59722 80.6906 7.35377C81.5074 7.07592 82.0604 6.53874 82.445 5.89572C82.9154 5.11245 82.4323 3.87668 81.3707 3.45328C80.5666 3.1331 79.6672 2.91611 78.7836 2.80497C75.2207 2.35512 71.731 2.74146 68.2984 3.58295C68.0187 3.65175 67.7486 3.74701 67.4848 3.85021C65.5619 4.59379 64.9612 5.81369 65.7208 7.44639C65.9179 7.87243 66.3692 8.0312 66.8396 8.15557C68.273 8.52603 69.7255 8.79859 70.555 8.70068V8.69539ZM67.1034 7.40405C67.1511 6.88275 67.4689 6.6049 67.8852 6.36145C68.5527 5.97246 69.325 5.9116 70.091 5.77929C73.2057 5.23946 76.33 5.10186 79.4701 5.57553C80.0168 5.65756 80.6524 5.61522 81.0783 6.09418C80.9162 6.21591 80.7859 6.3297 80.6334 6.42496C79.8038 6.94626 78.8027 7.12355 77.8269 7.30085C75.44 7.73482 73.0055 7.84332 70.5741 7.94123C69.3822 7.98886 68.2539 7.8539 67.1066 7.40405H67.1034ZM70.9141 4.81343C71.6483 3.62264 71.9026 3.48239 73.0373 3.66498C72.4461 4.2101 72.1759 5.05952 70.9141 4.81343ZM74.6232 4.49853C75.1381 3.37125 75.6053 3.14897 76.4603 3.58559C76.1361 4.24714 75.7165 4.78167 74.6232 4.49853ZM74.6804 3.45858C74.0098 4.6229 73.8731 4.71023 72.9165 4.57527C73.3614 3.51415 73.6189 3.35273 74.6804 3.45858ZM78.1162 3.60147C77.5822 4.65995 77.4932 4.70493 76.4857 4.42973C77.0419 3.42153 77.1659 3.35802 78.1162 3.60147ZM68.9945 5.03042C69.4172 4.34505 69.9098 3.87668 70.9269 3.94812C70.5423 4.63349 70.1259 5.18125 68.9945 5.03042ZM81.0783 4.18099C80.6185 4.63084 80.1121 4.76844 79.5591 4.59379C80.0136 3.792 80.1058 3.76554 81.0783 4.18099V4.18099ZM68.772 4.37416C68.2031 5.40088 67.898 5.65492 66.9318 5.89572C67.5356 5.37177 67.6437 4.56469 68.772 4.37416ZM78.2242 4.50118C78.6819 3.55913 78.7137 3.54061 79.5083 3.74172C79.0315 4.57527 79.0252 4.57792 78.2242 4.50118ZM81.6186 4.46148V5.47498C81.2944 5.21829 81.1228 5.08069 80.9003 4.90604C81.1705 4.73933 81.3103 4.65201 81.6186 4.45884V4.46148ZM66.3088 6.08889C66.3025 5.50938 66.3024 5.51202 66.8809 5.3162C66.6616 5.61258 66.4868 5.85073 66.3088 6.08889Z" fill="#333333"/>
<path d="M56.0078 12.6435C56.974 12.1804 57.4666 11.3416 58.2104 10.7012C58.9477 10.0688 59.6597 9.41781 60.3907 8.76685C59.1925 9.18759 56.3129 11.6512 56.0078 12.6409V12.6435Z" fill="#333333"/>
<path d="M61.5475 10.9235C61.7414 10.7938 61.9353 10.6642 62.2213 10.4763C61.6969 10.4154 61.6111 10.6615 61.4204 10.7938C61.4617 10.8362 61.503 10.8811 61.5444 10.9235H61.5475Z" fill="#333333"/>
<path d="M7.71064 115.305C8.09204 117.43 8.26049 119.608 9.08366 121.749C10.1198 121.354 9.83056 120.341 10.6092 119.833C10.9747 120.301 11.318 120.74 11.639 121.151C12.2334 121.055 12.2079 120.73 12.2079 120.439C12.2206 119.034 12.2206 117.629 12.227 116.221C12.227 115.901 12.227 115.583 12.227 115.197C12.6179 115.17 12.9326 115.131 13.2472 115.128C16.9499 115.086 20.6558 115.091 24.3554 114.996C26.2019 114.948 28.039 114.699 29.8824 114.58C32.05 114.44 34.224 114.339 36.3947 114.218C36.6522 114.202 36.9128 114.173 37.1607 114.114C37.5389 114.03 37.755 113.842 37.7646 113.477C37.8313 110.854 37.933 108.235 37.9839 105.612C38.0252 103.53 37.9743 101.447 38.0284 99.3645C38.1333 95.2788 38.1301 91.1984 37.9394 87.1153C37.79 83.9002 37.6851 80.6824 37.5643 77.4646C37.5326 76.5782 37.5039 76.5782 36.471 76.5146C32.3106 76.2685 28.163 76.5252 24.0089 76.647C20.8592 76.7396 17.7095 76.8057 14.563 76.8878C10.9557 76.9804 7.36739 77.2423 3.79816 77.6737C3.76638 77.6763 3.7346 77.679 3.70281 77.6843C2.24398 77.8563 1.9484 78.1659 2.10413 79.4069C2.51096 82.6062 2.95592 85.8028 3.31824 89.0073C3.5439 90.9999 3.66468 93.0004 3.78545 94.9983C3.96661 97.9435 4.13188 100.889 4.24948 103.837C4.3353 105.943 4.31305 108.055 4.37661 110.161C4.42111 111.593 4.51646 113.027 4.61816 114.456C4.67537 115.268 5.18708 115.57 6.11832 115.326C6.63638 115.191 7.1163 115.128 7.70746 115.303L7.71064 115.305ZM9.28072 80.82C7.29746 81.9102 5.72739 83.408 3.72506 84.7311C3.64243 84.0378 3.34685 83.5403 3.96661 83.0693C5.91491 81.5953 7.84095 80.1029 9.77017 78.6104C9.88777 78.5178 9.96723 78.3934 10.0658 78.2823C7.62483 79.4731 5.8863 81.3519 3.5439 82.7332C3.34049 82.1616 3.3532 81.7673 3.87444 81.3678C4.85653 80.6189 5.75281 79.7959 6.70948 79.0232C7.3356 78.5178 7.95219 78.0018 8.93746 77.9753C9.97359 77.9489 11.0034 77.8086 12.0395 77.7822C16.9118 77.6525 21.7809 77.5467 26.6533 77.4382C26.8662 77.4329 27.0823 77.4964 27.4002 77.5414C27.5209 79.3778 27.7593 81.1852 27.7371 82.9899C27.6767 87.6472 27.9468 92.2965 28.1343 96.9485C28.1439 97.2079 28.1343 97.4645 28.1343 97.7345C23.2461 98.2452 18.4533 98.2267 13.4856 98.4331C13.8161 98.0996 14.0196 97.8985 14.2929 97.626C13.3585 97.6948 12.9771 98.5627 11.9664 98.4092C12.4113 98.0599 12.7927 97.7609 13.1773 97.4619C13.136 97.4143 13.0915 97.3666 13.0502 97.3217C12.4463 97.5413 11.9028 97.8562 11.4229 98.2399C11.0288 98.5548 10.6092 98.6712 10.0467 98.5495C10.3645 98.0494 11.0129 97.8826 11.2036 97.3825C10.7046 97.5969 10.2723 97.8668 9.84328 98.1446C9.33687 98.4745 8.84953 98.5971 8.38126 98.5124C9.02963 98.0282 9.64622 97.5677 10.266 97.1073C10.2247 97.0676 10.1834 97.0253 10.142 96.9856C9.92591 97.0888 9.69707 97.1735 9.50002 97.2978C8.87707 97.6868 8.26366 98.089 7.65025 98.4886C7.34832 98.6871 7.06545 98.9305 6.49653 98.7374C7.32925 98.007 8.11746 97.3111 8.90568 96.6178C8.86118 96.5807 8.81351 96.5437 8.76901 96.5066C8.56878 96.631 8.34948 96.7421 8.16832 96.885C7.44049 97.4619 6.71901 98.0494 6.00072 98.6368C5.71785 98.8697 5.4477 99.1158 4.91374 98.7903C5.99436 97.4354 7.4532 96.3928 8.88025 95.3211C7.18305 95.7498 6.29312 97.0068 5.0377 97.9329C4.74847 97.4672 4.88832 97.1735 5.21568 96.8956C5.82909 96.3743 6.42979 95.8398 7.04002 95.3158C7.29111 95.1015 7.55491 94.8951 7.81553 94.686C6.6046 95.0353 5.88948 95.898 4.83747 96.4431C4.86289 96.1706 4.90739 95.8927 5.09491 95.7286C5.82909 95.0803 6.61095 94.4691 7.36739 93.8393C7.47545 93.7493 7.55173 93.6329 7.64072 93.527C7.58669 93.4847 7.53266 93.4397 7.47863 93.3974C6.61413 94.0166 5.75281 94.6358 4.85653 95.2761C4.64677 94.4664 4.64677 94.4479 5.14576 94.0536C5.75917 93.5694 6.38847 93.101 6.9987 92.6167C7.13537 92.5082 7.2339 92.3627 7.45638 92.1192C6.26134 92.5162 5.73057 93.4106 4.68491 93.7228C4.5832 93.0322 4.56731 93.0163 5.02181 92.6723C5.67018 92.1801 6.34715 91.7144 7.00506 91.2301C7.12266 91.1428 7.20211 91.0237 7.30064 90.9179L7.18305 90.8253C6.35987 91.3227 5.53669 91.8202 4.69444 92.3283C4.3639 91.8546 4.58638 91.5318 4.9201 91.2592C5.59072 90.7088 6.28994 90.1822 6.9701 89.6424C7.08452 89.5498 7.17033 89.4334 7.27204 89.3275C7.22754 89.2905 7.17987 89.2508 7.13537 89.2137C6.26452 89.7853 5.39367 90.3569 4.50692 90.9364C4.25266 90.4363 4.437 90.1346 4.88196 89.8435C5.58119 89.3884 6.23274 88.8777 6.90335 88.3908C6.85886 88.3431 6.81436 88.2928 6.77304 88.2452C6.01979 88.7083 5.26971 89.1714 4.48467 89.6556C4.17002 89.047 4.32576 88.6818 4.82793 88.3405C5.55576 87.843 6.23274 87.2952 6.92242 86.7633C7.03684 86.676 7.12266 86.5649 7.22436 86.4643C7.17987 86.4273 7.13537 86.3902 7.09087 86.3532C6.16599 86.9512 5.24429 87.5519 4.23359 88.2082C4.1446 87.7001 3.97615 87.3323 4.3925 87.0174C4.94235 86.5993 5.47948 86.168 6.03568 85.7525C6.78576 85.1915 7.54537 84.6411 8.3018 84.0854C6.65863 84.657 5.6225 85.9007 4.08103 86.6416C3.68057 85.8689 3.77274 85.2656 4.50057 84.7073C5.83863 83.6805 7.13219 82.6141 8.43847 81.5583C8.73087 81.3201 9.00738 81.0687 9.29343 80.8226L9.28072 80.82ZM28.735 106.499C26.6342 106.575 24.6954 106.657 22.7567 106.71C20.8433 106.763 18.9268 106.771 17.0135 106.835C15.0684 106.901 13.1233 106.98 11.1845 107.113C9.25847 107.242 7.33878 107.443 5.43498 107.61C5.15212 106.724 4.99956 100.32 5.24746 99.7694C12.815 99.039 20.4651 98.9967 28.1852 98.5071C28.3727 101.217 28.5539 103.826 28.7382 106.499H28.735ZM5.58119 110.995C5.19661 110.09 5.2284 110.007 5.96576 109.502C6.39165 109.211 6.81754 108.917 7.21483 108.6C7.70429 108.208 8.27002 107.999 8.95018 107.959C10.8285 107.851 12.7006 107.684 14.5821 107.613C18.7679 107.454 22.9569 107.332 27.1427 107.208C27.6544 107.192 28.1661 107.234 28.7827 107.253C28.9702 109.46 29.1514 111.595 29.3389 113.81C28.0231 113.919 26.8217 114.019 25.4614 114.133C25.8078 113.792 26.0335 113.572 26.2592 113.352C25.1817 113.545 24.4571 114.477 23.0523 114.096C23.6243 113.683 24.1138 113.334 24.6001 112.982C24.3871 112.913 24.2155 112.918 24.0979 112.984C23.5957 113.276 23.0936 113.572 22.62 113.895C22.2704 114.133 21.9526 114.384 21.355 114.13C21.7174 113.831 22.0288 113.564 22.353 113.31C22.6677 113.064 22.995 112.831 23.3161 112.593C23.2716 112.548 23.2271 112.5 23.1826 112.455C23.03 112.527 22.8584 112.58 22.7281 112.675C22.1623 113.08 21.5966 113.485 21.0499 113.908C20.7099 114.173 20.3793 114.382 19.7627 114.149C20.481 113.577 21.1357 113.056 21.7937 112.532C21.5807 112.503 21.4345 112.548 21.3233 112.625C20.7257 113.04 20.1219 113.45 19.553 113.892C19.1747 114.186 18.8092 114.398 18.199 114.17C18.6122 113.519 19.483 113.246 19.8867 112.619C19.1461 113.006 18.466 113.45 17.8208 113.924C17.4426 114.202 17.0802 114.421 16.3651 114.191C17.2741 113.522 18.0878 112.924 18.8982 112.323C18.8601 112.278 18.8188 112.233 18.7806 112.191C18.4374 112.368 18.0655 112.519 17.7509 112.728C17.1406 113.133 16.559 113.564 15.971 113.99C15.5706 114.281 15.1542 114.469 14.4772 114.212C15.596 113.413 16.6321 112.672 17.6682 111.931C17.3313 111.937 17.0771 112.034 16.8609 112.175C15.9647 112.757 15.0811 113.35 14.1944 113.942C13.8765 114.157 13.5905 114.437 13.0406 114.257C13.6636 113.384 14.7283 112.921 15.4244 112.148C15.1192 112.22 14.8364 112.328 14.6107 112.49C13.9687 112.945 13.3267 113.403 12.7292 113.895C12.2429 114.297 11.7216 114.419 10.9112 114.233C12.0299 113.196 13.2758 112.431 14.4709 111.601C14.0513 111.672 13.654 111.78 13.3458 111.984C12.4336 112.59 11.5214 113.201 10.6792 113.874C10.1261 114.313 9.57948 114.458 8.74359 114.239C9.83056 113.109 11.2068 112.32 12.2588 111.275C11.8837 111.413 11.5564 111.59 11.2672 111.802C10.3168 112.498 9.38878 113.215 8.42894 113.905C8.16832 114.091 7.84731 114.3 7.53266 114.331C6.9701 114.387 6.38847 114.318 5.85134 114.3C5.53669 113.717 5.60026 113.297 6.09925 112.9C7.34514 111.913 8.55925 110.897 9.7956 109.902C9.92591 109.798 10.1325 109.761 10.3041 109.693C10.212 109.613 10.123 109.531 10.0308 109.452C8.35901 110.288 7.17669 111.611 5.77506 112.717C5.70514 112.691 5.63522 112.664 5.56529 112.638C5.53669 112.225 5.50808 111.81 5.48902 111.54C7.04956 110.386 8.49568 109.319 9.93862 108.253C8.18739 108.83 7.03684 110.06 5.58436 110.992L5.58119 110.995ZM36.5886 77.4514C36.9128 84.1277 37.3959 90.6982 37.1162 97.2555C35.7146 97.5889 32.3964 97.7345 31.7258 97.5175C31.7099 97.4407 31.6845 97.3613 31.6813 97.282C31.5923 93.2253 31.5097 89.1687 31.4207 85.1121C31.408 84.5432 31.3571 83.9769 31.3476 83.4106C31.3158 81.5451 31.2936 79.6821 31.2809 77.8166C31.2809 77.6419 31.3826 77.4673 31.4684 77.1868C33.1688 77.2768 34.8342 77.3641 36.5886 77.4567V77.4514ZM30.1049 113.686C28.7605 101.577 28.7509 89.5154 27.9945 77.4064H30.3719C30.3973 77.6208 30.4386 77.8272 30.4386 78.0362C30.4386 78.5496 30.3909 79.0656 30.4164 79.5789C30.4895 81.1481 30.6166 82.7147 30.6643 84.2812C30.7628 87.5519 30.8264 90.8253 30.8995 94.0986C30.9471 96.1785 30.9217 98.2637 31.0488 100.341C31.319 104.736 31.6686 109.129 31.9896 113.556C31.4175 113.807 30.8136 113.707 30.1049 113.688V113.686ZM32.2916 106.501C31.9801 103.739 31.8212 101.13 31.6877 98.4119C33.5533 98.3881 35.2887 98.0838 37.1321 98.2108C37.1448 100.939 37.1194 103.572 37.0908 106.282C35.4412 106.356 33.9315 106.425 32.2916 106.501ZM32.6825 113.612C32.8128 111.399 32.2121 109.357 32.3456 107.3C33.5215 107.073 36.5091 106.988 37.1098 107.179C37.1098 107.393 37.1194 107.631 37.1098 107.872C37.0622 108.952 37.0145 110.034 36.9605 111.114C36.9319 111.653 36.8905 112.191 36.8429 112.73C36.8079 113.141 36.5441 113.368 36.0419 113.4C34.9772 113.466 33.9125 113.535 32.6857 113.614L32.6825 113.612ZM9.59537 120.06C9.49366 120.052 9.39514 120.042 9.29343 120.034C8.81669 118.486 8.6387 116.896 8.43211 115.236H11.5882C11.5913 116.763 11.9473 118.248 11.5214 119.859C11.2322 119.513 11.0606 119.259 10.8317 119.044C10.5298 118.764 10.2151 118.835 10.034 119.195C9.89095 119.484 9.74157 119.772 9.59219 120.06H9.59537ZM7.21801 78.2188C5.87994 79.2879 4.71033 80.2273 3.48669 81.2063C3.26421 80.5924 3.2515 80.5845 3.55344 80.3172C4.08739 79.8462 4.59592 79.3381 5.19979 78.9359C5.70514 78.5998 6.16917 78.1103 7.22118 78.2161L7.21801 78.2188ZM4.98049 78.3511C5.02498 78.4014 5.06948 78.449 5.11715 78.4993C4.54188 78.928 3.96979 79.3567 3.34685 79.8224C2.94956 78.7877 3.0608 78.629 4.1446 78.4861C4.42429 78.449 4.70398 78.3961 4.98367 78.3511H4.98049ZM5.2856 108.309C5.84816 108.266 6.29312 108.235 6.73808 108.203C6.40754 108.69 6.05793 109.055 5.38731 109.19C5.35553 108.907 5.32692 108.679 5.2856 108.311V108.309Z" fill="#333333"/>
<path d="M6.29959 114.143C7.77114 112.95 9.24269 111.757 10.7079 110.571C10.2693 110.582 9.29037 111.185 8.24789 112.098C7.52959 112.728 6.81765 113.363 6.10254 113.998C6.16928 114.046 6.23603 114.096 6.30277 114.143H6.29959Z" fill="#333333"/>
<path d="M140.639 53.4742C138.92 50.2247 136.199 47.9966 132.481 46.6656C131.063 46.1575 129.515 45.8611 127.92 45.9485C127.726 45.9591 127.529 45.9617 127.335 45.9485C124.595 45.7818 122.253 46.6206 120.152 47.9834C119.234 48.5788 118.372 49.2536 117.597 49.976C115.467 51.958 114.368 54.3051 114.155 56.9646C113.955 59.4626 115.007 61.5875 116.618 63.6277C118.401 65.8849 120.934 67.1101 123.963 67.8351C125.555 68.2162 127.192 68.3802 128.769 68.1633C131.575 67.7769 134.178 66.8931 136.358 65.2789C137.69 64.2919 138.726 63.1223 139.546 61.8256C140.283 60.6613 140.544 59.3753 140.719 58.0813C140.757 57.7902 140.798 57.4991 140.846 57.1577C141.596 57.0572 142.295 56.9699 142.991 56.8667C143.948 56.7238 144.908 56.5782 145.858 56.4142C146.554 56.2951 147.11 55.922 147.184 55.361C147.269 54.71 147.241 54.0141 146.348 53.596C145.763 53.3234 145.191 53.1038 144.517 53.1435C143.649 53.1964 142.782 53.2546 141.914 53.3261C141.469 53.3631 141.027 53.4266 140.636 53.4716L140.639 53.4742ZM137.912 57.3668C137.96 59.3514 137.019 61.1694 135.545 62.6062C132.411 65.6547 127.094 66.6576 122.441 64.747C120.232 63.842 118.63 62.3972 117.67 60.5343C116.157 57.5917 116.526 54.7338 118.865 52.1988C121.579 49.2589 125.228 48.1819 129.623 48.8963C132.649 49.3885 135.055 50.5846 136.536 52.9212C137.398 54.284 137.954 55.6997 137.912 57.3668V57.3668ZM125.914 46.9355C131.626 46.0517 138.272 49.3329 139.676 54.882C141.1 60.5052 137.22 65.0116 132.045 66.6311C132.128 66.1627 132.338 65.8214 132.84 65.5885C134.242 64.9323 135.395 64.0273 136.501 63.064C138.364 61.4419 139.066 59.4176 139.149 57.2874C139.209 55.7553 138.602 54.239 137.957 52.7942C136.997 50.6428 134.852 49.4441 132.506 48.5126C130.672 47.7849 128.699 47.4356 126.639 47.597C126.099 47.6394 125.857 47.4409 125.914 46.9355V46.9355ZM119.66 49.9522C119.151 50.4761 118.674 51.0159 118.14 51.5108C116.545 52.9926 115.868 54.7338 115.836 56.7079C115.785 59.8304 118.789 63.8605 122.352 65.3133C122.628 65.4244 122.886 65.5647 123.165 65.6996C122.526 66.385 122.53 66.3824 121.754 66.1574C120.035 65.6573 118.77 64.6941 117.654 63.5192C115.235 60.9735 114.476 58.1368 115.302 54.9852C115.82 53.0138 117.142 51.4314 118.801 50.0157C119.056 49.7987 119.332 49.5632 119.66 49.9495V49.9522ZM143.268 54.0749C143.904 53.9267 144.253 53.9744 144.326 54.4586C144.383 54.8291 144.469 55.1996 144.504 55.57C144.536 55.8796 144.349 56.094 143.967 56.131C143.401 56.1866 142.832 56.221 142.248 56.266C141.968 55.5224 141.892 54.8476 142.047 54.1675C142.6 54.0061 142.852 54.1384 142.982 54.5936C143.064 54.8873 143.026 55.2789 143.563 55.5224C143.455 54.9932 143.366 54.5592 143.268 54.0696V54.0749ZM144.676 54.1331C145.801 54.1728 146.421 54.5671 146.408 55.1705C146.399 55.6626 145.858 55.9167 144.876 55.8399C144.809 55.2842 144.743 54.7153 144.673 54.1331H144.676ZM140.697 56.4221C140.697 55.7447 140.678 55.1387 140.713 54.5354C140.719 54.4295 140.941 54.2681 141.081 54.2549C141.224 54.239 141.504 54.3554 141.526 54.4454C141.672 55.0593 141.939 55.6732 141.784 56.3692C141.421 56.3851 141.116 56.4009 140.697 56.4221ZM127.179 66.4432C127.068 66.7793 127.011 67.0439 126.89 67.2847C126.712 67.642 126.305 67.7213 125.918 67.6446C125.676 67.597 125.387 67.425 125.279 67.245C125.082 66.9143 125.435 66.7052 125.705 66.52C126.134 66.2236 126.607 66.3321 127.179 66.4459V66.4432ZM125.129 66.2765C124.742 67.0545 124.456 67.1656 123.448 66.9328C123.264 66.8904 123.029 66.737 122.987 66.5994C122.949 66.467 123.095 66.2606 123.229 66.1389C123.448 65.9405 123.721 65.8134 124.084 65.9537C124.398 66.0754 124.735 66.1548 125.129 66.2739V66.2765ZM127.392 67.3879C127.456 66.34 127.875 66.4168 129.312 66.4962C129.074 67.4991 128.775 67.6393 127.392 67.3879ZM129.589 67.2027C129.814 66.1892 130.853 66.3533 131.683 66.1019C131.298 67.0598 130.962 67.2292 129.589 67.2027ZM121.589 48.8143C120.743 49.28 120.143 49.3973 119.787 49.1662C120.089 48.9545 120.365 48.7349 120.67 48.5523C121.131 48.2771 121.141 48.2877 121.589 48.8143V48.8143ZM125.466 47.6156C124.125 48.0972 124.058 48.0813 123.903 47.2239C124.328 47.1525 124.758 47.081 125.222 47.0043C125.311 47.2319 125.38 47.3986 125.466 47.6129V47.6156ZM123.473 48.1157C122.45 48.5735 122.288 48.5629 121.9 47.994C123.003 47.4383 123.137 47.4489 123.473 48.1157Z" fill="#333333"/>
<path d="M130.469 50.7645C129.684 50.1136 128.781 49.9733 127.761 50.0527C125.593 50.2194 123.582 50.746 121.697 51.6484C119.92 52.4978 118.811 53.7812 118.166 55.3689C118.131 55.4562 118.178 55.57 118.201 55.8585C119.243 54.6439 119.993 53.4266 121.382 52.6698C122.717 51.9395 124.1 51.3176 125.67 51.0027C127.249 50.6852 128.845 50.6825 130.466 50.7645H130.469Z" fill="#333333"/>
<path d="M120.54 56.8561C120.991 56.8693 121.058 56.6073 121.083 56.3718C121.169 55.6044 121.713 55.1017 122.393 54.6492C123.515 53.9003 124.713 53.2546 126.124 52.9874C126.928 52.8365 127.777 52.8418 128.565 52.7783C128.209 52.4634 128.012 52.3999 127.348 52.3443C126.267 52.2517 125.298 52.5825 124.354 52.9318C123.197 53.3631 122.145 53.9347 121.335 54.7815C120.829 55.3107 120.613 55.9193 120.47 56.5597C120.451 56.6523 120.515 56.7582 120.54 56.8534V56.8561Z" fill="#333333"/>
<path d="M127.434 63.5165C127.561 64.014 127.929 64.0458 128.336 64.0405C130.386 64.0061 132.077 63.2493 133.593 62.1829C134.051 61.8627 134.41 61.4419 134.814 61.0688C134.769 61.0212 134.721 60.9709 134.677 60.9233C134.486 61.0265 134.286 61.1165 134.105 61.2302C133.406 61.6669 132.738 62.1405 132.014 62.5401C130.818 63.199 129.493 63.4954 128.05 63.4081C127.856 63.3975 127.653 63.4769 127.434 63.5165V63.5165Z" fill="#333333"/>
<path d="M126.302 62.0585C126.833 62.5771 127.329 62.6142 127.79 62.503C129.824 62.0161 131.642 61.2302 132.916 59.7537C132.951 59.714 132.942 59.6505 132.973 59.5049C132.773 59.5658 132.57 59.5737 132.494 59.661C131.705 60.5819 130.52 61.0397 129.363 61.524C128.692 61.8045 127.99 61.995 127.211 61.9368C126.979 61.9182 126.738 61.995 126.299 62.0585H126.302Z" fill="#333333"/>
<path d="M122.132 57.8113C123.095 55.8214 124.974 54.9032 127.529 54.6412C126.442 54.2443 125.05 54.5407 123.782 55.353C122.549 56.1442 121.922 57.0254 122.132 57.8113Z" fill="#333333"/>
<path d="M126.334 60.5951C126.547 60.6481 126.776 60.7724 126.97 60.7407C127.472 60.6613 128.041 60.6057 128.438 60.3729C129.442 59.7854 130.37 59.108 131.324 58.4597C131.381 58.42 131.381 58.3194 131.448 58.1474C131.203 58.2242 131.022 58.2427 130.895 58.3247C130.412 58.6396 129.954 58.9863 129.468 59.3012C128.664 59.8225 127.806 60.2458 126.744 60.2723C126.626 60.275 126.509 60.3411 126.391 60.3782C126.372 60.4496 126.353 60.521 126.334 60.5951V60.5951Z" fill="#333333"/>
<path d="M126.966 56.3374C125.902 56.1707 124.557 56.9355 124.49 57.851C125.352 57.3245 126.175 56.8217 126.966 56.3374Z" fill="#333333"/>
<path d="M128.731 57.8802C128.298 58.1315 127.888 58.412 127.431 58.6264C126.973 58.8407 126.468 58.9863 125.927 59.1821C126.827 59.6452 128.006 59.1345 128.731 57.8802Z" fill="#333333"/>
<path d="M158.015 113.167C157.996 113.172 157.999 113.193 158.021 113.191C158.466 113.133 158.384 112.574 158.384 112.299C158.384 111.823 157.952 111.283 157.411 111.111C155.708 110.574 154.929 111.95 154.729 113.13C154.637 113.665 155.434 113.831 155.876 114.019C156.585 114.318 157.265 114.585 157.983 114.183C158.39 113.956 157.802 113.384 157.548 113.286C156.747 112.982 155.902 112.805 155.066 113.069C155.085 112.818 155.215 112.508 155.256 112.386C155.561 111.534 156.391 110.942 157.465 111.436C157.844 111.611 158.015 111.971 158.088 112.304C158.117 112.426 158.199 113.122 158.018 113.164L158.015 113.167ZM156.744 113.365C156.9 113.405 157.052 113.448 157.205 113.495C157.176 114.001 156.989 114.167 156.639 113.998C156.337 113.908 156.048 113.765 155.762 113.649C155.574 113.575 155.387 113.495 155.202 113.416C155.171 113.403 155.151 113.379 155.132 113.358C155.698 113.18 156.175 113.223 156.744 113.363V113.365Z" fill="#333333"/>
<path d="M161.273 116.001C161.254 116.006 161.257 116.028 161.279 116.025C161.724 115.967 161.642 115.408 161.642 115.133C161.642 114.657 161.209 114.117 160.669 113.945C158.966 113.408 158.187 114.784 157.987 115.964C157.894 116.499 158.692 116.665 159.134 116.853C159.843 117.152 160.523 117.419 161.241 117.017C161.648 116.79 161.06 116.218 160.806 116.12C160.005 115.816 159.159 115.639 158.323 115.903C158.343 115.652 158.473 115.342 158.514 115.221C158.819 114.368 159.649 113.776 160.723 114.271C161.101 114.445 161.273 114.805 161.346 115.138C161.375 115.26 161.457 115.956 161.276 115.998L161.273 116.001ZM160.002 116.2C160.157 116.239 160.31 116.282 160.462 116.329C160.434 116.835 160.246 117.001 159.897 116.832C159.595 116.742 159.306 116.599 159.02 116.483C158.832 116.409 158.645 116.329 158.46 116.25C158.428 116.237 158.409 116.213 158.39 116.192C158.956 116.014 159.433 116.057 160.002 116.197V116.2Z" fill="#333333"/>
<path d="M164.353 119.825C164.353 119.825 164.343 119.846 164.359 119.843C164.715 119.777 164.61 119.33 164.591 119.108C164.556 118.724 164.175 118.309 163.73 118.197C162.325 117.843 161.788 118.986 161.705 119.947C161.667 120.381 162.319 120.478 162.687 120.608C163.278 120.815 163.841 121 164.394 120.645C164.706 120.444 164.194 120.01 163.984 119.944C163.317 119.735 162.627 119.632 161.972 119.883C161.972 119.679 162.055 119.425 162.08 119.325C162.268 118.623 162.897 118.11 163.797 118.459C164.114 118.581 164.273 118.864 164.356 119.129C164.385 119.224 164.499 119.783 164.356 119.825H164.353ZM163.342 120.042C163.469 120.066 163.596 120.095 163.723 120.124C163.733 120.531 163.593 120.674 163.301 120.555C163.053 120.497 162.811 120.396 162.573 120.314C162.417 120.261 162.261 120.209 162.106 120.153C162.08 120.142 162.064 120.127 162.045 120.111C162.49 119.944 162.875 119.955 163.342 120.042V120.042Z" fill="#333333"/>
</g>
<defs>
<clipPath id="clip0_567_741">
<rect width="186" height="193" fill="white"/>
</clipPath>
</defs>
</svg>
